<?xml version="1.0" encoding="UTF-8" standalone="no"?>
<!-- Created with Inkscape (http://www.inkscape.org/) -->

<svg
   xmlns:dc="http://purl.org/dc/elements/1.1/"
   xmlns:cc="http://creativecommons.org/ns#"
   xmlns:rdf="http://www.w3.org/1999/02/22-rdf-syntax-ns#"
   xmlns:svg="http://www.w3.org/2000/svg"
   xmlns="http://www.w3.org/2000/svg"
   xmlns:sodipodi="http://sodipodi.sourceforge.net/DTD/sodipodi-0.dtd"
   xmlns:inkscape="http://www.inkscape.org/namespaces/inkscape"
   width="744.09448819"
   height="1052.3622047"
   id="svg2"
   version="1.1"
   inkscape:version="0.48.4 r9939"
   sodipodi:docname="BeefIcon.svg">
  <defs
     id="defs4" />
  <sodipodi:namedview
     id="base"
     pagecolor="#ffffff"
     bordercolor="#666666"
     borderopacity="1.0"
     inkscape:pageopacity="0.0"
     inkscape:pageshadow="2"
     inkscape:zoom="0.64"
     inkscape:cx="73.057517"
     inkscape:cy="630.74305"
     inkscape:document-units="px"
     inkscape:current-layer="layer1"
     showgrid="false"
     showguides="true"
     inkscape:guide-bbox="true"
     inkscape:window-width="1462"
     inkscape:window-height="880"
     inkscape:window-x="53"
     inkscape:window-y="105"
     inkscape:window-maximized="0" />
  <metadata
     id="metadata7">
    <rdf:RDF>
      <cc:Work
         rdf:about="">
        <dc:format>image/svg+xml</dc:format>
        <dc:type
           rdf:resource="http://purl.org/dc/dcmitype/StillImage" />
        <dc:title></dc:title>
      </cc:Work>
    </rdf:RDF>
  </metadata>
  <g
     inkscape:label="Layer 1"
     inkscape:groupmode="layer"
     id="layer1">
    <path
       style="fill:none;stroke:#8f5902;stroke-width:14;stroke-linecap:round;stroke-linejoin:round;stroke-miterlimit:4;stroke-opacity:1;stroke-dasharray:none"
       d="m 148.27823,431.38976 c -4.97904,-2.79005 -7.10301,-7.93564 -7.73847,-12.91345 -0.64612,-5.06132 4.46636,-9.58549 4.31738,-14.68571 C 144.42878,389.12622 130,362.36218 130,362.36218 c 0,0 -7.68982,3.40305 -11.79841,3.6327 -5.09169,0.2846 -10.919,0.17021 -15.03217,-2.84444 -3.4585,-2.53482 -9.407545,-8.03879 -6.086299,-11.33294 6.170539,-6.1202 17.708539,-7.40175 27.827589,-7.66961 -0.59524,-2.05357 -0.83333,-3.66071 -0.71428,-6.42857 0,0 -9.40385,-4.97202 -12.76786,-8.92857 -4.62166,-5.43574 -9.08855,-12.15352 -9.28571,-19.28571 -0.18877,-6.8289 3.30868,-13.83142 7.85714,-18.92858 4.89636,-5.48701 19.28571,-10.71427 19.28571,-10.71427 0,0 -8.67719,9.65074 -10.07171,15.71399 -1.31663,5.72462 -1.33735,12.71658 2.072,17.5 4.12868,5.79266 19.214,9.286 19.214,9.286 10.65301,-4.80173 13.31846,-6.07092 26.80748,-6.07083 13.48902,9e-5 16.15451,1.2691 26.80752,6.07083 0,0 15.08529,-3.49255 19.214,-9.285 3.40945,-4.78335 3.38859,-11.77537 2.072,-17.5 -1.39451,-6.06344 -10.07175,-15.71465 -10.07175,-15.71465 0,0 14.38935,5.22726 19.28571,10.71427 4.54846,5.09716 8.04591,12.09968 7.85714,18.92858 -0.19716,7.13219 -4.66405,13.84997 -9.28571,19.28571 -3.36401,3.95655 -12.76786,8.92857 -12.76786,8.92857 0.11905,2.76786 -0.11904,4.375 -0.71428,6.42857 10.11905,0.26786 21.65705,1.54941 27.82759,7.66961 3.32125,3.29415 -2.6278,8.79812 -6.0863,11.33294 -4.11317,3.01465 -9.94048,3.12904 -15.03217,2.84444 -4.10859,-0.22965 -11.79841,-3.6327 -11.79841,-3.6327 0,0 -14.42872,26.76427 -14.85714,41.42875 -0.14901,5.10044 4.96359,9.62484 4.31741,14.68637 -0.63548,4.9778 -2.75943,10.1234 -7.73847,12.91345 -5.02053,2.81331 -11.06681,3.66658 -18.77674,3.66652 -7.70993,-6e-5 -14.26126,-0.85454 -19.28179,-3.66785 z"
       id="path2991"
       inkscape:connector-curvature="0"
       sodipodi:nodetypes="saacaasccaaacaaczcaacaaaccsaacaaszs" />
    <path
       sodipodi:type="arc"
       style="fill:#8f5902;fill-opacity:1;stroke:#8f5902;stroke-width:29.31071219000000028;stroke-linecap:round;stroke-linejoin:round;stroke-miterlimit:4;stroke-opacity:1;stroke-dasharray:none"
       id="path3832"
       sodipodi:cx="145.5251"
       sodipodi:cy="343.86646"
       sodipodi:rx="28.978752"
       sodipodi:ry="13.131983"
       d="m 174.50385,343.86646 a 28.978752,13.131983 0 1 1 -57.9575,0 28.978752,13.131983 0 1 1 57.9575,0 z"
       transform="matrix(0.16076703,0,0,0.35476956,126.36941,234.99514)" />
    <path
       sodipodi:type="arc"
       style="fill:#8f5902;fill-opacity:1;stroke:#8f5902;stroke-width:29.31071219000000028;stroke-linecap:round;stroke-linejoin:round;stroke-miterlimit:4;stroke-opacity:1;stroke-dasharray:none"
       id="path3832-3"
       sodipodi:cx="145.5251"
       sodipodi:cy="343.86646"
       sodipodi:rx="28.978752"
       sodipodi:ry="13.131983"
       d="m 174.50385,343.86646 a 28.978752,13.131983 0 1 1 -57.9575,0 28.978752,13.131983 0 1 1 57.9575,0 z"
       transform="matrix(0.16076703,0,0,0.35476956,160.19958,234.99483)" />
  </g>
</svg>
