<?xml version="1.0" encoding="UTF-8" standalone="no"?>
<!-- Created with Inkscape (http://www.inkscape.org/) -->

<svg
   xmlns:dc="http://purl.org/dc/elements/1.1/"
   xmlns:cc="http://creativecommons.org/ns#"
   xmlns:rdf="http://www.w3.org/1999/02/22-rdf-syntax-ns#"
   xmlns:svg="http://www.w3.org/2000/svg"
   xmlns="http://www.w3.org/2000/svg"
   xmlns:xlink="http://www.w3.org/1999/xlink"
   xmlns:sodipodi="http://sodipodi.sourceforge.net/DTD/sodipodi-0.dtd"
   xmlns:inkscape="http://www.inkscape.org/namespaces/inkscape"
   width="766"
   height="766"
   id="svg2"
   version="1.1"
   inkscape:version="0.48.4 r9939"
   sodipodi:docname="dumpling_waiting.svg"
   inkscape:export-filename="/Users/tass/Projects/Dumplings/workspace/dumpling-waiting.png"
   inkscape:export-xdpi="4.9299998"
   inkscape:export-ydpi="4.9299998">
  <defs
     id="defs4">
    <linearGradient
       id="linearGradient3938">
      <stop
         id="stop3940"
         offset="0"
         style="stop-color:#ffffff;stop-opacity:1;" />
      <stop
         id="stop3942"
         offset="1"
         style="stop-color:#ebebeb;stop-opacity:1;" />
    </linearGradient>
    <linearGradient
       id="linearGradient3853">
      <stop
         style="stop-color:#ffffff;stop-opacity:1;"
         offset="0"
         id="stop3855" />
      <stop
         style="stop-color:#dcdcdc;stop-opacity:1;"
         offset="1"
         id="stop3857" />
    </linearGradient>
    <linearGradient
       id="linearGradient3843">
      <stop
         style="stop-color:#ffea87;stop-opacity:0.71372551;"
         offset="0"
         id="stop3845" />
      <stop
         style="stop-color:#c0af3a;stop-opacity:0;"
         offset="1"
         id="stop3847" />
    </linearGradient>
    <linearGradient
       id="linearGradient3857">
      <stop
         style="stop-color:#d8bf7a;stop-opacity:1;"
         offset="0"
         id="stop3859" />
      <stop
         id="stop3861"
         offset="1"
         style="stop-color:#eee2c3;stop-opacity:1;" />
    </linearGradient>
    <linearGradient
       id="linearGradient3835">
      <stop
         id="stop3843"
         offset="0"
         style="stop-color:#d8bf7a;stop-opacity:1;" />
      <stop
         style="stop-color:#eee2c3;stop-opacity:1;"
         offset="1"
         id="stop3839" />
    </linearGradient>
    <linearGradient
       id="linearGradient3817">
      <stop
         style="stop-color:#4f4529;stop-opacity:1;"
         offset="0"
         id="stop3819" />
      <stop
         id="stop3825"
         offset="0.67647058"
         style="stop-color:#4f4529;stop-opacity:0.49803922;" />
      <stop
         style="stop-color:#4f4529;stop-opacity:0;"
         offset="1"
         id="stop3821" />
    </linearGradient>
    <linearGradient
       inkscape:collect="always"
       xlink:href="#linearGradient3817"
       id="linearGradient3823"
       x1="513.68799"
       y1="540.33307"
       x2="510.60675"
       y2="711.04883"
       gradientUnits="userSpaceOnUse"
       gradientTransform="translate(-325.71429,2.8571424)" />
    <radialGradient
       inkscape:collect="always"
       xlink:href="#linearGradient3843"
       id="radialGradient3849"
       cx="-104.11725"
       cy="231.80336"
       fx="-104.11725"
       fy="231.80336"
       r="46.42857"
       gradientUnits="userSpaceOnUse"
       gradientTransform="matrix(-3.0453462e-7,1.0610315,-1.1284534,-3.2388588e-7,165.91575,364.02457)" />
    <radialGradient
       inkscape:collect="always"
       xlink:href="#linearGradient3843-9"
       id="radialGradient3849-5"
       cx="-109.82954"
       cy="236.27919"
       fx="-109.82954"
       fy="236.27919"
       r="46.42857"
       gradientUnits="userSpaceOnUse"
       gradientTransform="matrix(0,1.2350886,-1.3677819,0,222.46411,383.1411)" />
    <linearGradient
       id="linearGradient3843-9">
      <stop
         style="stop-color:#ffea87;stop-opacity:0.71372551;"
         offset="0"
         id="stop3845-2" />
      <stop
         style="stop-color:#c0af3a;stop-opacity:0;"
         offset="1"
         id="stop3847-5" />
    </linearGradient>
    <radialGradient
       r="46.42857"
       fy="232.08661"
       fx="-103.04069"
       cy="232.08661"
       cx="-103.04069"
       gradientTransform="matrix(7.0361266e-8,1.0550978,-1.1389803,7.5955135e-8,168.40306,363.37277)"
       gradientUnits="userSpaceOnUse"
       id="radialGradient3868"
       xlink:href="#linearGradient3843-9"
       inkscape:collect="always" />
    <radialGradient
       inkscape:collect="always"
       xlink:href="#linearGradient3843-1"
       id="radialGradient3849-8"
       cx="-109.82954"
       cy="236.27919"
       fx="-109.82954"
       fy="236.27919"
       r="46.42857"
       gradientUnits="userSpaceOnUse"
       gradientTransform="matrix(0,1.2350886,-1.3677819,0,222.46411,383.1411)" />
    <linearGradient
       id="linearGradient3843-1">
      <stop
         style="stop-color:#ffea87;stop-opacity:0.71372551;"
         offset="0"
         id="stop3845-27" />
      <stop
         style="stop-color:#c0af3a;stop-opacity:0;"
         offset="1"
         id="stop3847-6" />
    </linearGradient>
    <radialGradient
       r="46.42857"
       fy="232.62813"
       fx="-105.16495"
       cy="232.62813"
       cx="-105.16495"
       gradientTransform="matrix(-8.8420494e-8,1.0827887,-1.1066963,-9.0372788e-8,160.77501,366.41409)"
       gradientUnits="userSpaceOnUse"
       id="radialGradient3868-7"
       xlink:href="#linearGradient3843-1"
       inkscape:collect="always" />
    <radialGradient
       r="46.42857"
       fy="236.27919"
       fx="-109.82954"
       cy="236.27919"
       cx="-109.82954"
       gradientTransform="matrix(0,1.2350886,-1.3677819,0,222.46411,383.1411)"
       gradientUnits="userSpaceOnUse"
       id="radialGradient3868-7-7"
       xlink:href="#linearGradient3843-1-2"
       inkscape:collect="always" />
    <linearGradient
       id="linearGradient3843-1-2">
      <stop
         style="stop-color:#ffea87;stop-opacity:0.71372551;"
         offset="0"
         id="stop3845-27-0" />
      <stop
         style="stop-color:#c0af3a;stop-opacity:0;"
         offset="1"
         id="stop3847-6-7" />
    </linearGradient>
    <radialGradient
       r="46.42857"
       fy="236.27919"
       fx="-109.82954"
       cy="236.27919"
       cx="-109.82954"
       gradientTransform="matrix(0,1.2350886,-1.3677819,0,222.46411,383.1411)"
       gradientUnits="userSpaceOnUse"
       id="radialGradient3868-7-2"
       xlink:href="#linearGradient3843-1-8"
       inkscape:collect="always" />
    <linearGradient
       id="linearGradient3843-1-8">
      <stop
         style="stop-color:#ffea87;stop-opacity:0.71372551;"
         offset="0"
         id="stop3845-27-9" />
      <stop
         style="stop-color:#c0af3a;stop-opacity:0;"
         offset="1"
         id="stop3847-6-8" />
    </linearGradient>
    <radialGradient
       r="46.42857"
       fy="236.27919"
       fx="-109.82954"
       cy="236.27919"
       cx="-109.82954"
       gradientTransform="matrix(0,1.2350886,-1.3677819,0,222.46411,383.1411)"
       gradientUnits="userSpaceOnUse"
       id="radialGradient3868-7-24"
       xlink:href="#linearGradient3843-1-5"
       inkscape:collect="always" />
    <linearGradient
       id="linearGradient3843-1-5">
      <stop
         style="stop-color:#c0af3a;stop-opacity:0.81739128;"
         offset="0"
         id="stop3845-27-5" />
      <stop
         style="stop-color:#c0af3a;stop-opacity:0;"
         offset="1"
         id="stop3847-6-84" />
    </linearGradient>
    <linearGradient
       id="linearGradient6515">
      <stop
         style="stop-color:#000000;stop-opacity:1;"
         offset="0"
         id="stop6517" />
      <stop
         style="stop-color:#ffffff;stop-opacity:0;"
         offset="1"
         id="stop6519" />
    </linearGradient>
    <radialGradient
       inkscape:collect="always"
       xlink:href="#linearGradient6914"
       id="radialGradient6920"
       cx="22.967371"
       cy="41.309681"
       fx="22.967371"
       fy="41.309681"
       r="19.94857"
       gradientTransform="matrix(1,0,0,0.3149284,0,28.300089)"
       gradientUnits="userSpaceOnUse" />
    <linearGradient
       id="linearGradient6914">
      <stop
         style="stop-color:#000000;stop-opacity:1;"
         offset="0"
         id="stop6916" />
      <stop
         style="stop-color:#000000;stop-opacity:0;"
         offset="1"
         id="stop6918" />
    </linearGradient>
    <radialGradient
       r="19.94857"
       fy="41.309681"
       fx="22.967371"
       cy="41.309681"
       cx="22.967371"
       gradientTransform="matrix(1,0,0,0.3149284,0,28.300089)"
       gradientUnits="userSpaceOnUse"
       id="radialGradient3145"
       xlink:href="#linearGradient6914"
       inkscape:collect="always" />
    <radialGradient
       inkscape:collect="always"
       xlink:href="#linearGradient3853-8"
       id="radialGradient3859-5"
       cx="20.030159"
       cy="39.59631"
       fx="20.030159"
       fy="39.59631"
       r="15.508999"
       gradientTransform="matrix(1,0,0,0.39764213,0,23.851149)"
       gradientUnits="userSpaceOnUse" />
    <linearGradient
       id="linearGradient3853-8">
      <stop
         style="stop-color:#dcdcdc;stop-opacity:1;"
         offset="0"
         id="stop3855-3" />
      <stop
         id="stop3866-8"
         offset="0.70588237"
         style="stop-color:#dcdcdc;stop-opacity:1;" />
      <stop
         style="stop-color:#ffffff;stop-opacity:1;"
         offset="1"
         id="stop3857-4" />
    </linearGradient>
    <radialGradient
       inkscape:collect="always"
       xlink:href="#linearGradient3938"
       id="radialGradient3922"
       gradientUnits="userSpaceOnUse"
       gradientTransform="matrix(1,0,0,0.39764213,0,23.851149)"
       cx="20.030159"
       cy="42.397987"
       fx="20.030159"
       fy="42.397987"
       r="15.508999" />
    <radialGradient
       inkscape:collect="always"
       xlink:href="#linearGradient3853"
       id="radialGradient3924"
       gradientUnits="userSpaceOnUse"
       gradientTransform="matrix(1,0,0,0.39764213,0,23.851149)"
       cx="20.030159"
       cy="43.436527"
       fx="20.030159"
       fy="43.436527"
       r="15.508999" />
  </defs>
  <sodipodi:namedview
     id="base"
     pagecolor="#ffffff"
     bordercolor="#666666"
     borderopacity="1.0"
     inkscape:pageopacity="0"
     inkscape:pageshadow="2"
     inkscape:zoom="0.49497475"
     inkscape:cx="199.27667"
     inkscape:cy="160.96536"
     inkscape:document-units="px"
     inkscape:current-layer="g3844"
     showgrid="false"
     inkscape:window-width="1744"
     inkscape:window-height="904"
     inkscape:window-x="60"
     inkscape:window-y="25"
     inkscape:window-maximized="0"
     fit-margin-top="150"
     fit-margin-left="20"
     fit-margin-right="20"
     fit-margin-bottom="150" />
  <metadata
     id="metadata7">
    <rdf:RDF>
      <cc:Work
         rdf:about="">
        <dc:format>image/svg+xml</dc:format>
        <dc:type
           rdf:resource="http://purl.org/dc/dcmitype/StillImage" />
        <dc:title />
      </cc:Work>
    </rdf:RDF>
  </metadata>
  <g
     transform="translate(457.75695,-283.75038)"
     inkscape:groupmode="layer"
     id="g3821"
     inkscape:label="Layer copy copy"
     style="display:none">
    <flowRoot
       transform="translate(-380.61409,260.59259)"
       style="font-size:640px;font-style:normal;font-weight:normal;line-height:125%;letter-spacing:0px;word-spacing:0px;fill:#a100af;fill-opacity:1;stroke:#ffffff;stroke-width:40;stroke-linejoin:round;stroke-miterlimit:4;stroke-opacity:1;stroke-dasharray:none;font-family:Sans"
       id="flowRoot3825"
       xml:space="preserve"><flowRegion
         id="flowRegion3827"><rect
           style="font-size:640px;fill:#a100af;fill-opacity:1;stroke:#ffffff;stroke-width:40;stroke-linejoin:round;stroke-miterlimit:4;stroke-opacity:1;stroke-dasharray:none"
           y="-36.556503"
           x="168.57143"
           height="782.85706"
           width="460"
           id="rect3829" /></flowRegion><flowPara
         style="font-size:680px;font-style:normal;font-variant:normal;font-weight:bold;font-stretch:normal;fill:#ffffff;fill-opacity:1;stroke:#a100af;stroke-width:40;stroke-linejoin:round;stroke-miterlimit:4;stroke-opacity:1;stroke-dasharray:none;font-family:Droid Sans;-inkscape-font-specification:Droid Sans Bold"
         id="flowPara3831">?</flowPara></flowRoot>    <flowRoot
       transform="translate(-457.75695,294.87831)"
       style="font-size:40px;font-style:normal;font-weight:normal;line-height:125%;letter-spacing:0px;word-spacing:0px;fill:#000000;fill-opacity:1;stroke:none;font-family:Sans"
       id="flowRoot3833"
       xml:space="preserve"><flowRegion
         id="flowRegion3835"><rect
           y="-516.55652"
           x="-214.28572"
           height="1011.4286"
           width="714.28571"
           id="rect3837" /></flowRegion><flowPara
         id="flowPara3839" /></flowRoot>  </g>
  <g
     style="display:inline"
     inkscape:label="Layer copy copy copy"
     id="g3844"
     inkscape:groupmode="layer"
     transform="translate(457.75695,-283.75038)">
    <path
       style="fill:none;stroke:#000000;stroke-width:30;stroke-linecap:butt;stroke-linejoin:miter;stroke-miterlimit:4;stroke-opacity:1;stroke-dasharray:none;display:inline"
       d="m -430,725.21932 c 5.87263,-46.73516 56.07675,-75.69851 83.79124,-113.78486 19.53718,-26.84878 31.21134,-61.46913 58.15301,-80.87802 33.17951,-23.90267 68.90939,-11.15208 98.87955,-27.68374 20.65268,-11.3921 29.83667,-40.86769 52.48338,-47.45853 44.205893,-12.86517 90.303803,19.06376 136.15777286,23.19735 37.90056014,3.41661 79.19155014,-13.75874 114.15575714,1.26223 29.60303,12.71775 39.76036,52.66217 67.30878,69.37041 16.57817,10.05474 42.35018,2.60406 55.7399,16.62721 38.98643,40.83076 50.89431,108.80272 40.86493,164.35904 -4.1363,22.91245 -20.414,44.26554 -39.49105,57.61301 -47.30439,37.07377 -80.7028,10.01474 -119.03682,33.41113 -38.334017,23.39639 -135.869107,19.23524 -169.519407,29.1988 -52.264623,10.1213 -106.030713,20.02782 -159.354223,14.21833 -34.01635,-4.56795 -49.57641,-44.20237 -78.70425,-59.45238 -39.10125,-20.47163 -93.54525,-11.21481 -125.78274,-41.36011 -10.14962,-9.49092 -17.37832,-24.85252 -15.64583,-38.63987 z"
       id="path3846"
       inkscape:connector-curvature="0"
       sodipodi:nodetypes="aasaaaaaaaczccaaa" />
    <g
       transform="translate(-380.61409,260.59259)"
       style="font-size:640px;font-style:normal;font-weight:normal;line-height:125%;letter-spacing:0px;word-spacing:0px;fill:#ffffff;fill-opacity:1;stroke:#a100af;stroke-width:40;stroke-linejoin:round;stroke-miterlimit:4;stroke-opacity:1;font-family:Sans"
       id="flowRoot3848">
      <path
         d="m 256.21875,480.19177 0,-24.57031 c -9e-5,-11.28886 1.10668,-21.47115 3.32031,-30.54687 2.4348,-9.29665 5.97647,-18.04013 10.625,-26.23047 4.86969,-8.41121 11.0676,-16.49063 18.59375,-24.23828 7.52592,-7.96848 16.60143,-16.15858 27.22656,-24.57032 9.29672,-7.30439 17.15479,-13.83433 23.57422,-19.58984 6.4191,-5.75489 11.62091,-11.39942 15.60547,-16.93359 3.98419,-5.75488 6.86179,-11.73144 8.63281,-17.92969 1.77064,-6.19757 2.65606,-13.39157 2.65625,-21.58203 -1.9e-4,-12.61681 -4.31659,-23.02045 -12.94921,-31.21094 -8.41164,-8.1897 -21.36084,-12.28475 -38.84766,-12.28516 -15.27357,4.1e-4 -31.76444,3.21005 -49.47266,9.62891 -17.48705,6.41967 -35.63808,14.27773 -54.45312,23.57422 l -33.86719,-73.37891 c 9.51821,-5.5334 19.81117,-10.73521 30.87891,-15.60547 11.28901,-5.09067 22.91009,-9.51775 34.86328,-13.28125 12.17439,-3.98389 24.45954,-7.08284 36.85547,-9.29687 12.39571,-2.21305 24.57017,-3.31982 36.52343,-3.32031 22.57796,4.9e-4 42.94252,2.76741 61.09375,8.30078 18.15082,5.31298 33.53492,13.17104 46.15235,23.57422 12.61692,10.40409 22.24582,23.02127 28.88672,37.85156 6.86169,14.83114 10.29267,31.76471 10.29297,50.80078 -3e-4,13.94567 -1.54978,26.45217 -4.64844,37.51953 -3.09925,10.84668 -7.74768,21.02896 -13.94531,30.54688 -5.97684,9.29717 -13.61355,18.37268 -22.91016,27.22656 -9.07576,8.63308 -19.70075,17.81927 -31.875,27.55859 -9.29709,7.30493 -16.9338,13.7242 -22.91016,19.25781 -5.7554,5.31273 -10.29315,10.40387 -13.61328,15.27344 -3.32049,4.87 -5.64471,9.96114 -6.97265,15.27344 -1.10695,5.09134 -1.66034,11.17857 -1.66016,18.26172 l 0,19.92187 -87.65625,0 m -10.95703,113.55469 c -8e-5,-10.40359 1.43872,-19.14707 4.3164,-26.23047 3.09888,-7.3046 7.3046,-13.17048 12.61719,-17.59765 5.3124,-4.42699 11.51031,-7.63662 18.59375,-9.62891 7.30457,-1.99209 15.05196,-2.98818 23.24219,-2.98828 7.74725,10e-5 15.05193,0.99619 21.91406,2.98828 7.08317,1.99229 13.28108,5.20192 18.59375,9.62891 5.31232,4.42717 9.51805,10.29305 12.61719,17.59765 3.09877,7.0834 4.64824,15.82688 4.64844,26.23047 -2e-4,9.96098 -1.54967,18.4831 -4.64844,25.56641 -3.09914,7.08335 -7.30487,12.94922 -12.61719,17.59765 -5.31267,4.64844 -11.51058,7.96875 -18.59375,9.96094 -6.86213,2.21353 -14.16681,3.3203 -21.91406,3.32031 -8.19023,-10e-6 -15.93762,-1.10678 -23.24219,-3.32031 -7.08344,-1.99219 -13.28135,-5.3125 -18.59375,-9.96094 -5.31259,-4.64843 -9.51831,-10.5143 -12.61719,-17.59765 -2.87768,-7.08331 -4.31648,-15.60543 -4.3164,-25.56641"
         style="font-size:680px;font-variant:normal;font-weight:bold;font-stretch:normal;fill:#ffffff;fill-opacity:1;stroke:#a100af;stroke-opacity:1;font-family:Droid Sans;-inkscape-font-specification:Droid Sans Bold"
         id="path3865"
         inkscape:connector-curvature="0" />
    </g>
  </g>
</svg>
