<?xml version="1.0" encoding="UTF-8" standalone="no"?>
<!-- Created with Inkscape (http://www.inkscape.org/) -->

<svg
   xmlns:dc="http://purl.org/dc/elements/1.1/"
   xmlns:cc="http://creativecommons.org/ns#"
   xmlns:rdf="http://www.w3.org/1999/02/22-rdf-syntax-ns#"
   xmlns:svg="http://www.w3.org/2000/svg"
   xmlns="http://www.w3.org/2000/svg"
   xmlns:xlink="http://www.w3.org/1999/xlink"
   xmlns:sodipodi="http://sodipodi.sourceforge.net/DTD/sodipodi-0.dtd"
   xmlns:inkscape="http://www.inkscape.org/namespaces/inkscape"
   width="760.16998"
   height="760.87"
   id="svg2"
   version="1.1"
   inkscape:version="0.48.2 r9819"
   sodipodi:docname="flavoured_dumpling.svg"
   inkscape:export-filename="/Users/tass/Projects/Dumplings/Dumplings/src/main/res/drawable-xhdpi/pork_dumpling.png"
   inkscape:export-xdpi="11.365879"
   inkscape:export-ydpi="11.365879">
  <defs
     id="defs4">
    <linearGradient
       id="linearGradient3938">
      <stop
         id="stop3940"
         offset="0"
         style="stop-color:#ffffff;stop-opacity:1;" />
      <stop
         id="stop3942"
         offset="1"
         style="stop-color:#ebebeb;stop-opacity:1;" />
    </linearGradient>
    <linearGradient
       id="linearGradient3853">
      <stop
         style="stop-color:#ffffff;stop-opacity:1;"
         offset="0"
         id="stop3855" />
      <stop
         style="stop-color:#dcdcdc;stop-opacity:1;"
         offset="1"
         id="stop3857" />
    </linearGradient>
    <linearGradient
       id="linearGradient3843">
      <stop
         style="stop-color:#ffea87;stop-opacity:0.71372551;"
         offset="0"
         id="stop3845" />
      <stop
         style="stop-color:#c0af3a;stop-opacity:0;"
         offset="1"
         id="stop3847" />
    </linearGradient>
    <linearGradient
       id="linearGradient3857">
      <stop
         style="stop-color:#d8bf7a;stop-opacity:1;"
         offset="0"
         id="stop3859" />
      <stop
         id="stop3861"
         offset="1"
         style="stop-color:#eee2c3;stop-opacity:1;" />
    </linearGradient>
    <linearGradient
       id="linearGradient3835">
      <stop
         id="stop3843"
         offset="0"
         style="stop-color:#d8bf7a;stop-opacity:1;" />
      <stop
         style="stop-color:#eee2c3;stop-opacity:1;"
         offset="1"
         id="stop3839" />
    </linearGradient>
    <linearGradient
       id="linearGradient3817">
      <stop
         style="stop-color:#4f4529;stop-opacity:1;"
         offset="0"
         id="stop3819" />
      <stop
         id="stop3825"
         offset="0.67647058"
         style="stop-color:#4f4529;stop-opacity:0.49803922;" />
      <stop
         style="stop-color:#4f4529;stop-opacity:0;"
         offset="1"
         id="stop3821" />
    </linearGradient>
    <linearGradient
       inkscape:collect="always"
       xlink:href="#linearGradient3817"
       id="linearGradient3823"
       x1="513.68799"
       y1="540.33307"
       x2="510.60675"
       y2="711.04883"
       gradientUnits="userSpaceOnUse"
       gradientTransform="translate(-577.14286,11.428571)" />
    <radialGradient
       inkscape:collect="always"
       xlink:href="#linearGradient3835"
       id="radialGradient3841"
       cx="516.98907"
       cy="801.46814"
       fx="516.98907"
       fy="801.46814"
       r="362.54431"
       gradientTransform="matrix(0.99995115,0.00988468,-0.00788081,0.797236,-570.91379,107.22234)"
       gradientUnits="userSpaceOnUse" />
    <filter
       inkscape:collect="always"
       id="filter4055"
       x="-0.068238489"
       width="1.136477"
       y="-0.49697345"
       height="1.9939469"
       color-interpolation-filters="sRGB">
      <feGaussianBlur
         inkscape:collect="always"
         stdDeviation="15.069333"
         id="feGaussianBlur4057" />
    </filter>
    <radialGradient
       inkscape:collect="always"
       xlink:href="#linearGradient3843-9"
       id="radialGradient3849-5"
       cx="-109.82954"
       cy="236.27919"
       fx="-109.82954"
       fy="236.27919"
       r="46.42857"
       gradientUnits="userSpaceOnUse"
       gradientTransform="matrix(0,1.2350886,-1.3677819,0,222.46411,383.1411)" />
    <linearGradient
       id="linearGradient3843-9">
      <stop
         style="stop-color:#ffea87;stop-opacity:0.71372551;"
         offset="0"
         id="stop3845-2" />
      <stop
         style="stop-color:#c0af3a;stop-opacity:0;"
         offset="1"
         id="stop3847-5" />
    </linearGradient>
    <radialGradient
       inkscape:collect="always"
       xlink:href="#linearGradient3843-1"
       id="radialGradient3849-8"
       cx="-109.82954"
       cy="236.27919"
       fx="-109.82954"
       fy="236.27919"
       r="46.42857"
       gradientUnits="userSpaceOnUse"
       gradientTransform="matrix(0,1.2350886,-1.3677819,0,222.46411,383.1411)" />
    <linearGradient
       id="linearGradient3843-1">
      <stop
         style="stop-color:#ffea87;stop-opacity:0.71372551;"
         offset="0"
         id="stop3845-27" />
      <stop
         style="stop-color:#c0af3a;stop-opacity:0;"
         offset="1"
         id="stop3847-6" />
    </linearGradient>
    <radialGradient
       r="46.42857"
       fy="236.27919"
       fx="-109.82954"
       cy="236.27919"
       cx="-109.82954"
       gradientTransform="matrix(0,1.2350886,-1.3677819,0,222.46411,383.1411)"
       gradientUnits="userSpaceOnUse"
       id="radialGradient3868-7-7"
       xlink:href="#linearGradient3843-1-2"
       inkscape:collect="always" />
    <linearGradient
       id="linearGradient3843-1-2">
      <stop
         style="stop-color:#ffea87;stop-opacity:0.71372551;"
         offset="0"
         id="stop3845-27-0" />
      <stop
         style="stop-color:#c0af3a;stop-opacity:0;"
         offset="1"
         id="stop3847-6-7" />
    </linearGradient>
    <radialGradient
       r="46.42857"
       fy="236.27919"
       fx="-109.82954"
       cy="236.27919"
       cx="-109.82954"
       gradientTransform="matrix(0,1.2350886,-1.3677819,0,222.46411,383.1411)"
       gradientUnits="userSpaceOnUse"
       id="radialGradient3868-7-2"
       xlink:href="#linearGradient3843-1-8"
       inkscape:collect="always" />
    <linearGradient
       id="linearGradient3843-1-8">
      <stop
         style="stop-color:#ffea87;stop-opacity:0.71372551;"
         offset="0"
         id="stop3845-27-9" />
      <stop
         style="stop-color:#c0af3a;stop-opacity:0;"
         offset="1"
         id="stop3847-6-8" />
    </linearGradient>
    <radialGradient
       r="46.42857"
       fy="236.27919"
       fx="-109.82954"
       cy="236.27919"
       cx="-109.82954"
       gradientTransform="matrix(0,1.2350886,-1.3677819,0,222.46411,383.1411)"
       gradientUnits="userSpaceOnUse"
       id="radialGradient3868-7-24"
       xlink:href="#linearGradient3843-1-5"
       inkscape:collect="always" />
    <linearGradient
       id="linearGradient3843-1-5">
      <stop
         style="stop-color:#c0af3a;stop-opacity:0.81739128;"
         offset="0"
         id="stop3845-27-5" />
      <stop
         style="stop-color:#c0af3a;stop-opacity:0;"
         offset="1"
         id="stop3847-6-84" />
    </linearGradient>
    <linearGradient
       id="linearGradient6515">
      <stop
         style="stop-color:#000000;stop-opacity:1;"
         offset="0"
         id="stop6517" />
      <stop
         style="stop-color:#ffffff;stop-opacity:0;"
         offset="1"
         id="stop6519" />
    </linearGradient>
    <radialGradient
       inkscape:collect="always"
       xlink:href="#linearGradient6914"
       id="radialGradient6920"
       cx="22.967371"
       cy="41.309681"
       fx="22.967371"
       fy="41.309681"
       r="19.94857"
       gradientTransform="matrix(1,0,0,0.3149284,0,28.300089)"
       gradientUnits="userSpaceOnUse" />
    <linearGradient
       id="linearGradient6914">
      <stop
         style="stop-color:#000000;stop-opacity:1;"
         offset="0"
         id="stop6916" />
      <stop
         style="stop-color:#000000;stop-opacity:0;"
         offset="1"
         id="stop6918" />
    </linearGradient>
    <radialGradient
       r="19.94857"
       fy="41.309681"
       fx="22.967371"
       cy="41.309681"
       cx="22.967371"
       gradientTransform="matrix(1,0,0,0.3149284,0,28.300089)"
       gradientUnits="userSpaceOnUse"
       id="radialGradient3145"
       xlink:href="#linearGradient6914"
       inkscape:collect="always" />
    <radialGradient
       inkscape:collect="always"
       xlink:href="#linearGradient3853-8"
       id="radialGradient3859-5"
       cx="20.030159"
       cy="39.59631"
       fx="20.030159"
       fy="39.59631"
       r="15.508999"
       gradientTransform="matrix(1,0,0,0.39764213,0,23.851149)"
       gradientUnits="userSpaceOnUse" />
    <linearGradient
       id="linearGradient3853-8">
      <stop
         style="stop-color:#dcdcdc;stop-opacity:1;"
         offset="0"
         id="stop3855-3" />
      <stop
         id="stop3866-8"
         offset="0.70588237"
         style="stop-color:#dcdcdc;stop-opacity:1;" />
      <stop
         style="stop-color:#ffffff;stop-opacity:1;"
         offset="1"
         id="stop3857-4" />
    </linearGradient>
    <radialGradient
       inkscape:collect="always"
       xlink:href="#linearGradient3938"
       id="radialGradient3922"
       gradientUnits="userSpaceOnUse"
       gradientTransform="matrix(1,0,0,0.39764213,0,23.851149)"
       cx="20.030159"
       cy="42.397987"
       fx="20.030159"
       fy="42.397987"
       r="15.508999" />
    <radialGradient
       inkscape:collect="always"
       xlink:href="#linearGradient3853"
       id="radialGradient3924"
       gradientUnits="userSpaceOnUse"
       gradientTransform="matrix(1,0,0,0.39764213,0,23.851149)"
       cx="20.030159"
       cy="43.436527"
       fx="20.030159"
       fy="43.436527"
       r="15.508999" />
  </defs>
  <sodipodi:namedview
     id="base"
     pagecolor="#ffffff"
     bordercolor="#666666"
     borderopacity="1.0"
     inkscape:pageopacity="0.0"
     inkscape:pageshadow="2"
     inkscape:zoom="0.49497475"
     inkscape:cx="638.83547"
     inkscape:cy="318.47695"
     inkscape:document-units="px"
     inkscape:current-layer="layer2"
     showgrid="false"
     inkscape:window-width="1440"
     inkscape:window-height="789"
     inkscape:window-x="0"
     inkscape:window-y="0"
     inkscape:window-maximized="1"
     fit-margin-top="150"
     fit-margin-left="20"
     fit-margin-right="20"
     fit-margin-bottom="150" />
  <metadata
     id="metadata7">
    <rdf:RDF>
      <cc:Work
         rdf:about="">
        <dc:format>image/svg+xml</dc:format>
        <dc:type
           rdf:resource="http://purl.org/dc/dcmitype/StillImage" />
        <dc:title></dc:title>
      </cc:Work>
    </rdf:RDF>
  </metadata>
  <g
     style="display:inline"
     inkscape:label="Layer copy"
     id="g3847"
     inkscape:groupmode="layer"
     transform="translate(457.75695,-288.88036)">
    <path
       style="fill:url(#radialGradient3841);fill-opacity:1;stroke:#504529;stroke-width:30;stroke-linecap:butt;stroke-linejoin:miter;stroke-miterlimit:4;stroke-opacity:1;stroke-dasharray:none;display:inline"
       d="m -430,725.21932 c 5.87263,-46.73516 56.07675,-75.69851 83.79124,-113.78486 19.53718,-26.84878 31.21134,-61.46913 58.15301,-80.87802 33.17951,-23.90267 68.90939,-11.15208 98.87955,-27.68374 20.65268,-11.3921 29.83667,-40.86769 52.48338,-47.45853 44.205893,-12.86517 90.303803,19.06376 136.15777286,23.19735 37.90056014,3.41661 79.19155014,-13.75874 114.15575714,1.26223 29.60303,12.71775 39.76036,52.66217 67.30878,69.37041 16.57817,10.05474 42.35018,2.60406 55.7399,16.62721 38.98643,40.83076 50.89431,108.80272 40.86493,164.35904 -4.1363,22.91245 -20.414,44.26554 -39.49105,57.61301 -47.30439,37.07377 -80.7028,10.01474 -119.03682,33.41113 -38.334017,23.39639 -135.869107,19.23524 -169.519407,29.1988 -52.264623,10.1213 -106.030713,20.02782 -159.354223,14.21833 -34.01635,-4.56795 -49.57641,-44.20237 -78.70425,-59.45238 -39.10125,-20.47163 -93.54525,-11.21481 -125.78274,-41.36011 -10.14962,-9.49092 -17.37832,-24.85252 -15.64583,-38.63987 z"
       id="path2996"
       inkscape:connector-curvature="0"
       sodipodi:nodetypes="aasaaaaaaaczccaaa" />
    <path
       style="fill:none;stroke:url(#linearGradient3823);stroke-width:20;stroke-linecap:butt;stroke-linejoin:miter;stroke-miterlimit:4;stroke-opacity:1;stroke-dasharray:none;display:inline"
       d="m -318.54381,740.54194 c 7.77783,-3.67673 1.18601,-17.12109 11.73394,-22.75018 12.42695,-14.32418 23.65148,-31.27463 33.25661,-47.79636 10.48437,-18.07771 26.0021,-32.4587 39.86227,-47.64131 15.15187,-14.53175 30.54215,-27.24208 48.9227,-37.72792 15.32616,-8.709 31.81093,-11.68438 48.21846,-17.34393 19.42516,-3.66251 38.743793,-9.12942 58.675003,-8.56556 15.73674,-2.94731 32.09599,-1.97525 48.59405,0.93794 18.09393,3.98332 36.1468299,7.36674 54.53191,9.73323 16.37624,5.0017 35.72641,7.45457 48.14425,19.63121 20.00372,8.83434 31.290317,31.44285 53.226357,37.78121 18.53058,10.52675 29.48001,30.46005 38.05839,49.38305 8.2987,16.84698 10.77311,38.1887 18.75008,55.93077 4.4661,8.48298 9.31696,24.39698 15.22408,22.56998"
       id="path3795"
       inkscape:connector-curvature="0"
       sodipodi:nodetypes="cccccccccccccc" />
    <path
       style="opacity:0.7;fill:none;stroke:#000000;stroke-width:20;stroke-linecap:round;stroke-linejoin:round;stroke-miterlimit:4;stroke-opacity:1;stroke-dasharray:none;display:inline;filter:url(#filter4055)"
       d="m -334.73387,779.20916 c 17.00641,-1.35891 32.26953,10.61448 48.36799,15.67971 16.7347,16.78968 25.11726,40.53558 48.81717,49.11059 34.10832,17.57255 51.83577,4.92637 88.66884,8.30796 25.32308,2.11654 69.375073,-8.74701 93.800163,-14.48231 33.56028,-3.57215 60.1749099,3.73914 89.34948,-13.78534 56.72414,-4.38297 58.50098,-12.24544 87.989127,-19.93795 16.71222,0.9699 27.24485,-9.07791 80.34082,-13.86146"
       inkscape:connector-curvature="0"
       sodipodi:nodetypes="cccccccc"
       id="path3962" />
    <g
       inkscape:groupmode="layer"
       id="layer2"
       inkscape:label="Pork"
       style="display:inline">
      <g
         style="display:inline"
         id="layer1"
         inkscape:label="Layer 1"
         transform="matrix(2.3470056,0,0,2.3470056,-397.68837,123.03932)">
        <g
           id="layer1-3"
           inkscape:label="Layer 1"
           transform="matrix(1.3965292,0,0,1.3965292,-56.164189,-88.870659)">
          <path
             sodipodi:nodetypes="ccc"
             inkscape:connector-curvature="0"
             id="path4407"
             d="m 163.17246,191.1892 c 4.44743,-15.41489 30.88941,-7.3279 36.12347,-13.76706 -0.0369,16.34033 3.00026,26.8732 -17.96611,32.23822"
             style="fill:#ffffff;fill-opacity:1;stroke:#b70069;stroke-width:12.20382118;stroke-linecap:butt;stroke-linejoin:miter;stroke-miterlimit:4;stroke-opacity:1;stroke-dasharray:none" />
          <path
             sodipodi:nodetypes="ccc"
             inkscape:connector-curvature="0"
             id="path4407-9"
             d="m 111.08915,190.78224 c -4.44743,-15.41489 -30.889406,-7.3279 -36.123466,-13.76706 0.0369,16.34033 -3.00026,26.8732 17.96611,32.23822"
             style="fill:#ffffff;fill-opacity:1;stroke:#b70069;stroke-width:12.20382118;stroke-linecap:butt;stroke-linejoin:miter;stroke-miterlimit:4;stroke-opacity:1;stroke-dasharray:none" />
          <path
             inkscape:connector-curvature="0"
             id="path3896"
             d="m 188.9531,238.07646 c 0,29.99472 -23.11629,54.31024 -51.63167,54.31024 -28.51539,0 -51.631674,-24.31552 -51.631674,-54.31024 0,-29.99472 23.116284,-54.31024 51.631674,-54.31024 28.51538,0 51.63167,24.31552 51.63167,54.31024 z"
             style="fill:#ffffff;fill-opacity:1;stroke:#b70069;stroke-width:12.20382118;stroke-linecap:round;stroke-linejoin:round;stroke-miterlimit:4;stroke-opacity:1;stroke-dasharray:none" />
          <path
             transform="matrix(1.4437863,0,0,1.2579028,-69.670861,-65.590616)"
             d="m 158.92857,259.86218 a 15.714286,12.5 0 1 1 -31.42858,0 15.714286,12.5 0 1 1 31.42858,0 z"
             sodipodi:ry="12.5"
             sodipodi:rx="15.714286"
             sodipodi:cy="259.86218"
             sodipodi:cx="143.21428"
             id="path4413"
             style="fill:#ffffff;fill-opacity:1;stroke:#b70069;stroke-width:9.05567551;stroke-linecap:round;stroke-linejoin:round;stroke-miterlimit:4;stroke-opacity:1;stroke-dasharray:none"
             sodipodi:type="arc" />
          <path
             transform="matrix(0.70787158,0,0,0.70787158,37.077574,75.118301)"
             d="m 135.41095,263.49619 a 5.5684657,5.5684657 0 1 1 -11.13693,0 5.5684657,5.5684657 0 1 1 11.13693,0 z"
             sodipodi:ry="5.5684657"
             sodipodi:rx="5.5684657"
             sodipodi:cy="263.49619"
             sodipodi:cx="129.84248"
             id="path4415"
             style="fill:#b70069;fill-opacity:1;stroke:#b70069;stroke-width:4.23805666;stroke-linecap:round;stroke-linejoin:round;stroke-miterlimit:4;stroke-opacity:1;stroke-dasharray:none"
             sodipodi:type="arc" />
          <path
             d="m 135.41095,263.49619 a 5.5684657,5.5684657 0 1 1 -11.13693,0 5.5684657,5.5684657 0 1 1 11.13693,0 z"
             sodipodi:ry="5.5684657"
             sodipodi:rx="5.5684657"
             sodipodi:cy="263.49619"
             sodipodi:cx="129.84248"
             id="path4415-5"
             style="fill:#b70069;fill-opacity:1;stroke:#b70069;stroke-width:4.23805666;stroke-linecap:round;stroke-linejoin:round;stroke-miterlimit:4;stroke-opacity:1;stroke-dasharray:none"
             sodipodi:type="arc"
             transform="matrix(0.70787158,0,0,0.70787158,53.196154,75.118518)" />
          <path
             d="m 135.41095,263.49619 a 5.5684657,5.5684657 0 1 1 -11.13693,0 5.5684657,5.5684657 0 1 1 11.13693,0 z"
             sodipodi:ry="5.5684657"
             sodipodi:rx="5.5684657"
             sodipodi:cy="263.49619"
             sodipodi:cx="129.84248"
             id="path4415-5-4"
             style="fill:#b70069;fill-opacity:1;stroke:#b70069;stroke-width:7;stroke-linecap:round;stroke-linejoin:round;stroke-miterlimit:4;stroke-opacity:1;stroke-dasharray:none"
             sodipodi:type="arc"
             transform="translate(27.256542,-44.934219)" />
          <path
             d="m 135.41095,263.49619 a 5.5684657,5.5684657 0 1 1 -11.13693,0 5.5684657,5.5684657 0 1 1 11.13693,0 z"
             sodipodi:ry="5.5684657"
             sodipodi:rx="5.5684657"
             sodipodi:cy="263.49619"
             sodipodi:cx="129.84248"
             id="path4415-5-4-2"
             style="fill:#b70069;fill-opacity:1;stroke:#b70069;stroke-width:7;stroke-linecap:round;stroke-linejoin:round;stroke-miterlimit:4;stroke-opacity:1;stroke-dasharray:none"
             sodipodi:type="arc"
             transform="matrix(-1,0,0,1,247.00507,-45.341184)" />
          <path
             sodipodi:nodetypes="csszzzzc"
             inkscape:connector-curvature="0"
             id="path4528"
             d="m 210.82779,252.23731 c 0.8697,1.69128 1.36059,3.6093 1.36059,5.64198 0,6.82321 -4.4462,12.989 -10.31881,13.33726 -3.82321,0.22673 -10.13756,-0.0667 -11.93333,-6.1772 -1.79577,-6.11053 3.22248,-11.47768 6.63408,-11.47768 3.41161,0 8.21291,4.40817 8.21291,11.23138 0,6.82321 -9.54698,12.46772 -14.39021,11.79293 -4.84323,-0.67479 -5.49657,-0.17181 -11.51216,-5.03411"
             style="fill:none;stroke:#b70069;stroke-width:8;stroke-linecap:round;stroke-linejoin:round;stroke-miterlimit:4;stroke-opacity:1;stroke-dasharray:none" />
        </g>
      </g>
    </g>
    <g
       inkscape:groupmode="layer"
       id="layer4"
       inkscape:label="Beef"
       style="display:none">
      <g
         id="layer1-36"
         inkscape:label="Layer 1"
         transform="matrix(2.8554657,0,0,2.8554657,-561.32057,-356.02689)"
         style="fill:#ffffff;fill-opacity:1">
        <path
           sodipodi:nodetypes="saacaasccaaacaaczcaacaaaccsaacaaszs"
           inkscape:connector-curvature="0"
           id="path2991"
           d="m 148.27823,431.38976 c -4.97904,-2.79005 -7.10301,-7.93564 -7.73847,-12.91345 -0.64612,-5.06132 4.46636,-9.58549 4.31738,-14.68571 C 144.42878,389.12622 130,362.36218 130,362.36218 c 0,0 -7.68982,3.40305 -11.79841,3.6327 -5.09169,0.2846 -10.919,0.17021 -15.03217,-2.84444 -3.4585,-2.53482 -9.407545,-8.03879 -6.086299,-11.33294 6.170539,-6.1202 17.708539,-7.40175 27.827589,-7.66961 -0.59524,-2.05357 -0.83333,-3.66071 -0.71428,-6.42857 0,0 -9.40385,-4.97202 -12.76786,-8.92857 -4.62166,-5.43574 -9.08855,-12.15352 -9.28571,-19.28571 -0.18877,-6.8289 3.30868,-13.83142 7.85714,-18.92858 4.89636,-5.48701 19.28571,-10.71427 19.28571,-10.71427 0,0 -8.67719,9.65074 -10.07171,15.71399 -1.31663,5.72462 -1.33735,12.71658 2.072,17.5 4.12868,5.79266 19.214,9.286 19.214,9.286 10.65301,-4.80173 13.31846,-6.07092 26.80748,-6.07083 13.48902,9e-5 16.15451,1.2691 26.80752,6.07083 0,0 15.08529,-3.49255 19.214,-9.285 3.40945,-4.78335 3.38859,-11.77537 2.072,-17.5 -1.39451,-6.06344 -10.07175,-15.71465 -10.07175,-15.71465 0,0 14.38935,5.22726 19.28571,10.71427 4.54846,5.09716 8.04591,12.09968 7.85714,18.92858 -0.19716,7.13219 -4.66405,13.84997 -9.28571,19.28571 -3.36401,3.95655 -12.76786,8.92857 -12.76786,8.92857 0.11905,2.76786 -0.11904,4.375 -0.71428,6.42857 10.11905,0.26786 21.65705,1.54941 27.82759,7.66961 3.32125,3.29415 -2.6278,8.79812 -6.0863,11.33294 -4.11317,3.01465 -9.94048,3.12904 -15.03217,2.84444 -4.10859,-0.22965 -11.79841,-3.6327 -11.79841,-3.6327 0,0 -14.42872,26.76427 -14.85714,41.42875 -0.14901,5.10044 4.96359,9.62484 4.31741,14.68637 -0.63548,4.9778 -2.75943,10.1234 -7.73847,12.91345 -5.02053,2.81331 -11.06681,3.66658 -18.77674,3.66652 -7.70993,-6e-5 -14.26126,-0.85454 -19.28179,-3.66785 z"
           style="fill:#ffffff;fill-opacity:1;stroke:#8f5902;stroke-width:14.00822258;stroke-linecap:round;stroke-linejoin:round;stroke-miterlimit:4;stroke-opacity:1;stroke-dasharray:none" />
        <path
           transform="matrix(0.16076703,0,0,0.35476956,126.36941,234.99514)"
           d="m 174.50385,343.86646 a 28.978752,13.131983 0 1 1 -57.9575,0 28.978752,13.131983 0 1 1 57.9575,0 z"
           sodipodi:ry="13.131983"
           sodipodi:rx="28.978752"
           sodipodi:cy="343.86646"
           sodipodi:cx="145.5251"
           id="path3832"
           style="fill:#8f5902;fill-opacity:1;stroke:#8f5902;stroke-width:29.31071281;stroke-linecap:round;stroke-linejoin:round;stroke-miterlimit:4;stroke-opacity:1;stroke-dasharray:none"
           sodipodi:type="arc" />
        <path
           transform="matrix(0.16076703,0,0,0.35476956,160.19958,234.99483)"
           d="m 174.50385,343.86646 a 28.978752,13.131983 0 1 1 -57.9575,0 28.978752,13.131983 0 1 1 57.9575,0 z"
           sodipodi:ry="13.131983"
           sodipodi:rx="28.978752"
           sodipodi:cy="343.86646"
           sodipodi:cx="145.5251"
           id="path3832-3"
           style="fill:#8f5902;fill-opacity:1;stroke:#8f5902;stroke-width:29.31071281;stroke-linecap:round;stroke-linejoin:round;stroke-miterlimit:4;stroke-opacity:1;stroke-dasharray:none"
           sodipodi:type="arc" />
      </g>
    </g>
    <g
       inkscape:groupmode="layer"
       id="layer5"
       inkscape:label="Prawn"
       style="display:none">
      <g
         id="layer1-4"
         inkscape:label="Layer 1"
         transform="matrix(1.9288674,0,0,1.9288674,-663.8583,-156.29681)"
         style="fill:#ffffff;fill-opacity:1">
        <path
           id="path5238"
           sodipodi:nodetypes="cccscaaaaaasscscc"
           inkscape:connector-curvature="0"
           d="m 199.44873,344.57137 c 23.42341,-6.35936 86.21019,-14.7844 118.13746,-33.56136 1.7082,0.65013 0.63666,3.83816 3.36571,4.32867 38.67528,7.28859 71.29788,36.92313 81.40253,76.27297 15.29581,59.56543 -23.74417,120.5041 -82.61316,135.33138 -19.35019,5.41548 -38.66029,16.16592 -59.12191,16.55481 -6.14456,0.11678 -15.75645,1.45525 -17.93022,-4.29315 -3.13155,-8.28119 16.21379,-12.92522 15.27485,-21.7288 -1.20261,-11.27572 -24.86411,-11.73921 -24.99385,-23.07814 -0.0402,-3.51218 4.24423,-6.21215 7.57615,-7.32361 18.14047,-6.05128 37.80796,6.65431 56.92533,7.12448 5.28549,0.13 11.53967,0.98723 15.81631,-1.19369 30.47004,-15.53853 53.88033,-46.03677 38.8364,-78.58416 -13.5636,-29.34475 -50.29006,-44.6628 -76.98898,-29.73576 -7.03623,3.63488 -83.22353,-19.02965 -73.3464,-24.51764 l 12.30553,-6.83728 z"
           style="fill:#ffffff;fill-opacity:1;stroke:#d80000;stroke-width:18.14536285;stroke-linecap:butt;stroke-linejoin:round;stroke-miterlimit:4;stroke-opacity:1;stroke-dasharray:none" />
        <path
           sodipodi:nodetypes="cccc"
           inkscape:connector-curvature="0"
           id="path3791"
           d="m 348.30983,515.06192 c -15.0938,-1.47859 -23.50679,-9.00554 -33.32979,-19.52095 m 14.85347,-11.26843 c 13.54238,5.11055 25.3834,12.04696 42.84903,10.83885"
           style="fill:#ffffff;fill-opacity:1;stroke:#d80000;stroke-width:18.14536285;stroke-linecap:butt;stroke-linejoin:round;stroke-miterlimit:4;stroke-opacity:1;stroke-dasharray:none" />
        <path
           sodipodi:nodetypes="cccc"
           inkscape:connector-curvature="0"
           id="path3795-5"
           d="m 401.4159,445.70029 c -10.42342,2.03403 -25.46402,6.33719 -46.19321,-0.86526 m 3.58158,-17.85481 c 18.57687,-1.85705 31.62183,-2.34869 45.27241,-11.57788"
           style="fill:#ffffff;fill-opacity:1;stroke:#d80000;stroke-width:18.14536285;stroke-linecap:butt;stroke-linejoin:round;stroke-miterlimit:4;stroke-opacity:1;stroke-dasharray:none" />
        <path
           style="fill:#ffffff;fill-opacity:1;stroke:#d80000;stroke-width:18.14536285;stroke-linecap:butt;stroke-linejoin:round;stroke-miterlimit:4;stroke-opacity:1;stroke-dasharray:none"
           d="m 374.33311,345.72314 c -7.03979,16.71727 -18.2858,37.27905 -36.09617,46.58102 m -11.03859,-10.67624 c 15.39017,-17.04938 21.2839,-36.52218 26.61343,-53.73917"
           id="path3815"
           inkscape:connector-curvature="0"
           sodipodi:nodetypes="cccc" />
        <path
           sodipodi:nodetypes="cc"
           inkscape:connector-curvature="0"
           id="path3874"
           d="m 320.35714,313.79075 c 8.92073,17.06418 -22.84461,65.54646 -57.52973,69.93873"
           style="fill:#ffffff;fill-opacity:1;stroke:#d80000;stroke-width:18.14536285;stroke-linecap:butt;stroke-linejoin:round;stroke-miterlimit:4;stroke-opacity:1;stroke-dasharray:none" />
        <path
           transform="matrix(0.86666667,0,0,0.86666667,39.404762,47.172099)"
           d="m 247.85714,353.79074 a 3.2142856,3.2142856 0 1 1 -6.42857,0 3.2142856,3.2142856 0 1 1 6.42857,0 z"
           sodipodi:ry="3.2142856"
           sodipodi:rx="3.2142856"
           sodipodi:cy="353.79074"
           sodipodi:cx="244.64285"
           id="path3876"
           style="fill:#ffffff;fill-opacity:1;stroke:#d80000;stroke-width:16.9230442;stroke-linecap:round;stroke-linejoin:round;stroke-miterlimit:4;stroke-opacity:1;stroke-dasharray:none"
           sodipodi:type="arc" />
      </g>
    </g>
  </g>
</svg>
