<?xml version="1.0" encoding="UTF-8" standalone="no"?>
<!-- Created with Inkscape (http://www.inkscape.org/) -->

<svg
   xmlns:dc="http://purl.org/dc/elements/1.1/"
   xmlns:cc="http://creativecommons.org/ns#"
   xmlns:rdf="http://www.w3.org/1999/02/22-rdf-syntax-ns#"
   xmlns:svg="http://www.w3.org/2000/svg"
   xmlns="http://www.w3.org/2000/svg"
   xmlns:sodipodi="http://sodipodi.sourceforge.net/DTD/sodipodi-0.dtd"
   xmlns:inkscape="http://www.inkscape.org/namespaces/inkscape"
   width="744.09448819"
   height="1052.3622047"
   id="svg3114"
   version="1.1"
   inkscape:version="0.48.4 r9939"
   sodipodi:docname="Menuless.svg">
  <defs
     id="defs3116" />
  <sodipodi:namedview
     id="base"
     pagecolor="#ffffff"
     bordercolor="#666666"
     borderopacity="1.0"
     inkscape:pageopacity="0.0"
     inkscape:pageshadow="2"
     inkscape:zoom="2.8"
     inkscape:cx="94.081303"
     inkscape:cy="948.0861"
     inkscape:document-units="px"
     inkscape:current-layer="layer1-4"
     showgrid="false"
     inkscape:window-width="1234"
     inkscape:window-height="825"
     inkscape:window-x="32"
     inkscape:window-y="199"
     inkscape:window-maximized="0" />
  <metadata
     id="metadata3119">
    <rdf:RDF>
      <cc:Work
         rdf:about="">
        <dc:format>image/svg+xml</dc:format>
        <dc:type
           rdf:resource="http://purl.org/dc/dcmitype/StillImage" />
        <dc:title></dc:title>
      </cc:Work>
    </rdf:RDF>
  </metadata>
  <g
     inkscape:label="Layer 1"
     inkscape:groupmode="layer"
     id="layer1">
    <g
       id="layer1-5"
       inkscape:label="Layer 1"
       transform="matrix(0.31780798,0,0,0.31780798,27.425906,-24.069449)">
      <path
         sodipodi:nodetypes="saacaasccaaacaaczcaacaaaccsaacaaszs"
         inkscape:connector-curvature="0"
         id="path2991"
         d="m 148.27823,431.38976 c -4.97904,-2.79005 -7.10301,-7.93564 -7.73847,-12.91345 -0.64612,-5.06132 4.46636,-9.58549 4.31738,-14.68571 C 144.42878,389.12622 130,362.36218 130,362.36218 c 0,0 -7.68982,3.40305 -11.79841,3.6327 -5.09169,0.2846 -10.919,0.17021 -15.03217,-2.84444 -3.4585,-2.53482 -9.407545,-8.03879 -6.086299,-11.33294 6.170539,-6.1202 17.708539,-7.40175 27.827589,-7.66961 -0.59524,-2.05357 -0.83333,-3.66071 -0.71428,-6.42857 0,0 -9.40385,-4.97202 -12.76786,-8.92857 -4.62166,-5.43574 -9.08855,-12.15352 -9.28571,-19.28571 -0.18877,-6.8289 3.30868,-13.83142 7.85714,-18.92858 4.89636,-5.48701 19.28571,-10.71427 19.28571,-10.71427 0,0 -8.67719,9.65074 -10.07171,15.71399 -1.31663,5.72462 -1.33735,12.71658 2.072,17.5 4.12868,5.79266 19.214,9.286 19.214,9.286 10.65301,-4.80173 13.31846,-6.07092 26.80748,-6.07083 13.48902,9e-5 16.15451,1.2691 26.80752,6.07083 0,0 15.08529,-3.49255 19.214,-9.285 3.40945,-4.78335 3.38859,-11.77537 2.072,-17.5 -1.39451,-6.06344 -10.07175,-15.71465 -10.07175,-15.71465 0,0 14.38935,5.22726 19.28571,10.71427 4.54846,5.09716 8.04591,12.09968 7.85714,18.92858 -0.19716,7.13219 -4.66405,13.84997 -9.28571,19.28571 -3.36401,3.95655 -12.76786,8.92857 -12.76786,8.92857 0.11905,2.76786 -0.11904,4.375 -0.71428,6.42857 10.11905,0.26786 21.65705,1.54941 27.82759,7.66961 3.32125,3.29415 -2.6278,8.79812 -6.0863,11.33294 -4.11317,3.01465 -9.94048,3.12904 -15.03217,2.84444 -4.10859,-0.22965 -11.79841,-3.6327 -11.79841,-3.6327 0,0 -14.42872,26.76427 -14.85714,41.42875 -0.14901,5.10044 4.96359,9.62484 4.31741,14.68637 -0.63548,4.9778 -2.75943,10.1234 -7.73847,12.91345 -5.02053,2.81331 -11.06681,3.66658 -18.77674,3.66652 -7.70993,-6e-5 -14.26126,-0.85454 -19.28179,-3.66785 z"
         style="fill:#8f5902;fill-opacity:1;stroke:#8f5902;stroke-width:14;stroke-linecap:round;stroke-linejoin:round;stroke-miterlimit:4;stroke-opacity:1;stroke-dasharray:none" />
    </g>
    <g
       id="layer1-4"
       inkscape:label="Layer 1"
       transform="translate(-56.224475,-125.1959)">
      <path
         inkscape:connector-curvature="0"
         id="path3896"
         d="m 154.66128,274.10363 c 0,10.56006 -8.13841,19.12068 -18.17766,19.12068 -10.03923,0 -18.17765,-8.56062 -18.17765,-19.12068 0,-10.56006 8.13842,-19.12068 18.17765,-19.12068 10.03925,0 18.17766,8.56062 18.17766,19.12068 z"
         style="fill:#b70069;fill-opacity:1;stroke:#b70069;stroke-width:3.52063942;stroke-linecap:round;stroke-linejoin:round;stroke-miterlimit:4;stroke-opacity:1;stroke-dasharray:none" />
      <path
         sodipodi:nodetypes="ccc"
         inkscape:connector-curvature="0"
         id="path4407"
         d="m 145.58485,257.59632 c 1.56577,-5.42704 10.87504,-2.57989 12.71776,-4.84689 -0.013,5.75284 1.05628,9.46109 -6.32522,11.34991"
         style="fill:#b70069;fill-opacity:1;stroke:#b70069;stroke-width:3.52063942;stroke-linecap:butt;stroke-linejoin:miter;stroke-miterlimit:4;stroke-opacity:1;stroke-dasharray:none" />
      <path
         transform="matrix(0.70500087,0,0,0.61423396,35.439467,122.66037)"
         d="m 158.92857,259.86218 c 0,6.90356 -7.03553,12.5 -15.71429,12.5 -8.67876,0 -15.71429,-5.59644 -15.71429,-12.5 0,-6.90356 7.03553,-12.5 15.71429,-12.5 8.67876,0 15.71429,5.59644 15.71429,12.5 z"
         sodipodi:ry="12.5"
         sodipodi:rx="15.714286"
         sodipodi:cy="259.86218"
         sodipodi:cx="143.21428"
         id="path4413"
         style="fill:#ffffff;fill-opacity:1;stroke:#b70069;stroke-width:7.42036057;stroke-linecap:round;stroke-linejoin:round;stroke-miterlimit:4;stroke-opacity:1;stroke-dasharray:none"
         sodipodi:type="arc" />
      <path
         transform="matrix(0.24921607,0,0,0.24921607,101.19138,216.73194)"
         d="m 135.41095,263.49619 c 0,3.07537 -2.49309,5.56846 -5.56847,5.56846 -3.07538,0 -5.56846,-2.49309 -5.56846,-5.56846 0,-3.07538 2.49308,-5.56847 5.56846,-5.56847 3.07538,0 5.56847,2.49309 5.56847,5.56847 z"
         sodipodi:ry="5.5684657"
         sodipodi:rx="5.5684657"
         sodipodi:cy="263.49619"
         sodipodi:cx="129.84248"
         id="path4415"
         style="fill:#b70069;fill-opacity:1;stroke:#b70069;stroke-width:4.23805666;stroke-linecap:round;stroke-linejoin:round;stroke-miterlimit:4;stroke-opacity:1;stroke-dasharray:none"
         sodipodi:type="arc" />
      <path
         d="m 135.41095,263.49619 c 0,3.07537 -2.49309,5.56846 -5.56847,5.56846 -3.07538,0 -5.56846,-2.49309 -5.56846,-5.56846 0,-3.07538 2.49308,-5.56847 5.56846,-5.56847 3.07538,0 5.56847,2.49309 5.56847,5.56847 z"
         sodipodi:ry="5.5684657"
         sodipodi:rx="5.5684657"
         sodipodi:cy="263.49619"
         sodipodi:cx="129.84248"
         id="path4415-5"
         style="fill:#b70069;fill-opacity:1;stroke:#b70069;stroke-width:4.23805666;stroke-linecap:round;stroke-linejoin:round;stroke-miterlimit:4;stroke-opacity:1;stroke-dasharray:none"
         sodipodi:type="arc"
         transform="matrix(0.24921607,0,0,0.24921607,106.86616,216.73201)" />
      <path
         sodipodi:nodetypes="ccc"
         inkscape:connector-curvature="0"
         id="path4407-9"
         d="m 127.24818,257.45304 c -1.56577,-5.42703 -10.87504,-2.57989 -12.71776,-4.84689 0.013,5.75284 -1.05628,9.46109 6.32522,11.34992"
         style="fill:#b70069;fill-opacity:1;stroke:#b70069;stroke-width:3.52063942;stroke-linecap:butt;stroke-linejoin:miter;stroke-miterlimit:4;stroke-opacity:1;stroke-dasharray:none" />
      <flowRoot
         xml:space="preserve"
         id="flowRoot4676"
         style="font-size:40px;font-style:normal;font-weight:normal;line-height:125%;letter-spacing:0px;word-spacing:0px;fill:#000000;fill-opacity:1;stroke:none;font-family:Sans"
         transform="translate(49.438761,125.1959)"><flowRegion
           id="flowRegion4678"><rect
             id="rect4680"
             width="68.928574"
             height="53.214287"
             x="127.5"
             y="73.433609" /></flowRegion><flowPara
           id="flowPara4682"></flowPara></flowRoot>      <text
         xml:space="preserve"
         style="font-size:58.73008347px;font-style:normal;font-weight:normal;line-height:125%;letter-spacing:0px;word-spacing:0px;fill:#009b03;fill-opacity:1;stroke:none;font-family:Sans"
         x="163.31532"
         y="233.3073"
         id="text4684"
         sodipodi:linespacing="125%"><tspan
           sodipodi:role="line"
           id="tspan4686"
           x="163.31532"
           y="233.3073">✔</tspan></text>
      <text
         sodipodi:linespacing="125%"
         id="text4709"
         y="280.22083"
         x="163.31532"
         style="font-size:58.73008347px;font-style:normal;font-weight:normal;line-height:125%;letter-spacing:0px;word-spacing:0px;fill:#009b03;fill-opacity:1;stroke:none;font-family:Sans"
         xml:space="preserve"><tspan
           y="280.22083"
           x="163.31532"
           id="tspan4711"
           sodipodi:role="line">✔</tspan></text>
      <text
         xml:space="preserve"
         style="font-size:58.73008347px;font-style:normal;font-weight:normal;line-height:125%;letter-spacing:0px;word-spacing:0px;fill:#009b03;fill-opacity:1;stroke:none;font-family:Sans"
         x="163.31532"
         y="305.25281"
         id="text4713"
         sodipodi:linespacing="125%"><tspan
           sodipodi:role="line"
           id="tspan4715"
           x="163.31532"
           y="305.25281">✔</tspan></text>
    </g>
  </g>
</svg>
