<?xml version="1.0" encoding="UTF-8" standalone="no"?>
<!-- Created with Inkscape (http://www.inkscape.org/) -->

<svg
   xmlns:dc="http://purl.org/dc/elements/1.1/"
   xmlns:cc="http://creativecommons.org/ns#"
   xmlns:rdf="http://www.w3.org/1999/02/22-rdf-syntax-ns#"
   xmlns:svg="http://www.w3.org/2000/svg"
   xmlns="http://www.w3.org/2000/svg"
   xmlns:sodipodi="http://sodipodi.sourceforge.net/DTD/sodipodi-0.dtd"
   xmlns:inkscape="http://www.inkscape.org/namespaces/inkscape"
   width="162.8665"
   height="151.90565"
   id="svg6643"
   version="1.1"
   inkscape:version="0.48.4 r9939"
   sodipodi:docname="vegetable_icon.svg">
  <defs
     id="defs6645" />
  <sodipodi:namedview
     id="base"
     pagecolor="#ffffff"
     bordercolor="#666666"
     borderopacity="1.0"
     inkscape:pageopacity="0.0"
     inkscape:pageshadow="2"
     inkscape:zoom="2.8"
     inkscape:cx="112.8158"
     inkscape:cy="70.988383"
     inkscape:document-units="px"
     inkscape:current-layer="layer1"
     showgrid="false"
     inkscape:window-width="1524"
     inkscape:window-height="705"
     inkscape:window-x="248"
     inkscape:window-y="310"
     inkscape:window-maximized="0"
     fit-margin-top="20"
     fit-margin-left="20"
     fit-margin-right="20"
     fit-margin-bottom="20" />
  <metadata
     id="metadata6648">
    <rdf:RDF>
      <cc:Work
         rdf:about="">
        <dc:format>image/svg+xml</dc:format>
        <dc:type
           rdf:resource="http://purl.org/dc/dcmitype/StillImage" />
        <dc:title></dc:title>
      </cc:Work>
    </rdf:RDF>
  </metadata>
  <g
     inkscape:label="Layer 1"
     inkscape:groupmode="layer"
     id="layer1"
     transform="translate(-189.22288,-135.15171)">
    <path
       style="fill:#e1ffe4;fill-opacity:1;stroke:#0a5f13;stroke-width:8;stroke-linecap:butt;stroke-linejoin:round;stroke-miterlimit:4;stroke-opacity:1;stroke-dasharray:none"
       d="m 255.71429,258.79075 c 3.2484,3.50482 8.9183,4.41216 13.69397,4.24239 4.35668,-0.15487 9.85188,-1.06567 12.18619,-4.74747 2.1102,-3.32831 -0.86794,-16.03747 1.42857,-23.56399 2.84605,-9.32756 14.83412,-25.21664 14.83412,-25.21664 0,0 8.62046,2.3072 13.41299,3.73731 8.66805,2.58658 16.06171,-10.84496 16.78879,-19.35443 0.62755,-7.3446 -6.44309,-16.01075 -11.44653,-18.92114 -15.32863,-11.15258 -27.42601,-17.81792 -45.70685,-15.32124 -9.36302,1.51777 -16.27613,-0.91746 -24.64284,0.75761 -6.84622,1.37066 -18.47961,15.17672 -23.51016,16.84699 -5.50262,1.82701 -10.63781,12.77527 -9.28572,20 1.58917,8.49154 10.19272,16.33667 18.67604,17.96918 4.0378,0.77703 11.42857,-4.64286 11.42857,-4.64286 0,0 8.62208,15.3625 10.69634,23.81346 1.94223,7.91302 -1.6177,21.09473 1.44652,24.40083 z"
       id="path6653"
       inkscape:connector-curvature="0"
       sodipodi:nodetypes="sasacsaccssaacas" />
    <path
       style="fill:none;stroke:#0a5f13;stroke-width:8;stroke-linecap:butt;stroke-linejoin:round;stroke-miterlimit:4;stroke-opacity:1;stroke-dasharray:none"
       d="m 263.21859,207.31502 c -1.92584,0.82579 4.77685,13.99824 5.67118,19.06893 0.6957,-4.86184 8.63315,-18.38254 7.28525,-19.85844 -4.31195,-0.77805 -10.31487,-0.55661 -12.95643,0.78951 z"
       id="path6655"
       inkscape:connector-curvature="0"
       sodipodi:nodetypes="cccc" />
  </g>
</svg>
