<?xml version="1.0" encoding="UTF-8" standalone="no"?>
<!-- Created with Inkscape (http://www.inkscape.org/) -->

<svg
   xmlns:dc="http://purl.org/dc/elements/1.1/"
   xmlns:cc="http://creativecommons.org/ns#"
   xmlns:rdf="http://www.w3.org/1999/02/22-rdf-syntax-ns#"
   xmlns:svg="http://www.w3.org/2000/svg"
   xmlns="http://www.w3.org/2000/svg"
   xmlns:sodipodi="http://sodipodi.sourceforge.net/DTD/sodipodi-0.dtd"
   xmlns:inkscape="http://www.inkscape.org/namespaces/inkscape"
   width="186.35638"
   height="165.37152"
   id="svg3888"
   version="1.1"
   inkscape:version="0.48.4 r9939"
   sodipodi:docname="pork_icon.svg">
  <defs
     id="defs3890" />
  <sodipodi:namedview
     id="base"
     pagecolor="#ffffff"
     bordercolor="#666666"
     borderopacity="1.0"
     inkscape:pageopacity="0.0"
     inkscape:pageshadow="2"
     inkscape:zoom="3.5614267"
     inkscape:cx="77.935275"
     inkscape:cy="88.670154"
     inkscape:document-units="px"
     inkscape:current-layer="g3010"
     showgrid="false"
     inkscape:window-width="1336"
     inkscape:window-height="820"
     inkscape:window-x="564"
     inkscape:window-y="63"
     inkscape:window-maximized="0"
     fit-margin-top="20"
     fit-margin-left="20"
     fit-margin-right="20"
     fit-margin-bottom="20" />
  <metadata
     id="metadata3893">
    <rdf:RDF>
      <cc:Work
         rdf:about="">
        <dc:format>image/svg+xml</dc:format>
        <dc:type
           rdf:resource="http://purl.org/dc/dcmitype/StillImage" />
        <dc:title />
      </cc:Work>
    </rdf:RDF>
  </metadata>
  <g
     inkscape:label="Layer 1"
     inkscape:groupmode="layer"
     id="layer1"
     transform="translate(-49.832,-152.01518)">
    <g
       id="g3010">
      <path
         sodipodi:nodetypes="ccc"
         inkscape:connector-curvature="0"
         id="path4407"
         d="m 163.17246,191.1892 c 4.44743,-15.41489 30.88941,-7.3279 36.12347,-13.76706 -0.0369,16.34033 3.00026,26.8732 -17.96611,32.23822"
         style="fill:#ffd7ee;stroke:#b70069;stroke-width:10;stroke-linecap:butt;stroke-linejoin:miter;stroke-miterlimit:4;stroke-opacity:1;stroke-dasharray:none;fill-opacity:1" />
      <path
         sodipodi:nodetypes="ccc"
         inkscape:connector-curvature="0"
         id="path4407-9"
         d="m 111.08915,190.78224 c -4.44743,-15.41489 -30.889406,-7.3279 -36.123466,-13.76706 0.0369,16.34033 -3.00026,26.8732 17.96611,32.23822"
         style="fill:#ffd7ee;stroke:#b70069;stroke-width:10;stroke-linecap:butt;stroke-linejoin:miter;stroke-miterlimit:4;stroke-opacity:1;stroke-dasharray:none;fill-opacity:1" />
      <path
         inkscape:connector-curvature="0"
         id="path3896"
         d="m 188.9531,238.07646 c 0,29.99472 -23.11629,54.31024 -51.63167,54.31024 -28.51539,0 -51.631674,-24.31552 -51.631674,-54.31024 0,-29.99472 23.116284,-54.31024 51.631674,-54.31024 28.51538,0 51.63167,24.31552 51.63167,54.31024 z"
         style="fill:#ffd7ee;stroke:#b70069;stroke-width:10;stroke-linecap:round;stroke-linejoin:round;stroke-miterlimit:4;stroke-opacity:1;stroke-dasharray:none;fill-opacity:1" />
      <path
         transform="matrix(1.4437863,0,0,1.2579028,-69.670861,-65.590616)"
         d="m 158.92857,259.86218 c 0,6.90356 -7.03553,12.5 -15.71429,12.5 -8.67876,0 -15.71429,-5.59644 -15.71429,-12.5 0,-6.90356 7.03553,-12.5 15.71429,-12.5 8.67876,0 15.71429,5.59644 15.71429,12.5 z"
         sodipodi:ry="12.5"
         sodipodi:rx="15.714286"
         sodipodi:cy="259.86218"
         sodipodi:cx="143.21428"
         id="path4413"
         style="fill:#ffd7ee;fill-opacity:1;stroke:#b70069;stroke-width:7.42036056999999882;stroke-linecap:round;stroke-linejoin:round;stroke-miterlimit:4;stroke-opacity:1;stroke-dasharray:none"
         sodipodi:type="arc" />
      <path
         transform="matrix(0.70787158,0,0,0.70787158,37.077574,75.118301)"
         d="m 135.41095,263.49619 c 0,3.07537 -2.49309,5.56846 -5.56847,5.56846 -3.07538,0 -5.56846,-2.49309 -5.56846,-5.56846 0,-3.07538 2.49308,-5.56847 5.56846,-5.56847 3.07538,0 5.56847,2.49309 5.56847,5.56847 z"
         sodipodi:ry="5.5684657"
         sodipodi:rx="5.5684657"
         sodipodi:cy="263.49619"
         sodipodi:cx="129.84248"
         id="path4415"
         style="fill:#b70069;fill-opacity:1;stroke:#b70069;stroke-width:4.23805666;stroke-linecap:round;stroke-linejoin:round;stroke-miterlimit:4;stroke-opacity:1;stroke-dasharray:none"
         sodipodi:type="arc" />
      <path
         d="m 135.41095,263.49619 c 0,3.07537 -2.49309,5.56846 -5.56847,5.56846 -3.07538,0 -5.56846,-2.49309 -5.56846,-5.56846 0,-3.07538 2.49308,-5.56847 5.56846,-5.56847 3.07538,0 5.56847,2.49309 5.56847,5.56847 z"
         sodipodi:ry="5.5684657"
         sodipodi:rx="5.5684657"
         sodipodi:cy="263.49619"
         sodipodi:cx="129.84248"
         id="path4415-5"
         style="fill:#b70069;fill-opacity:1;stroke:#b70069;stroke-width:4.23805666;stroke-linecap:round;stroke-linejoin:round;stroke-miterlimit:4;stroke-opacity:1;stroke-dasharray:none"
         sodipodi:type="arc"
         transform="matrix(0.70787158,0,0,0.70787158,53.196154,75.118518)" />
      <path
         d="m 135.41095,263.49619 c 0,3.07537 -2.49309,5.56846 -5.56847,5.56846 -3.07538,0 -5.56846,-2.49309 -5.56846,-5.56846 0,-3.07538 2.49308,-5.56847 5.56846,-5.56847 3.07538,0 5.56847,2.49309 5.56847,5.56847 z"
         sodipodi:ry="5.5684657"
         sodipodi:rx="5.5684657"
         sodipodi:cy="263.49619"
         sodipodi:cx="129.84248"
         id="path4415-5-4"
         style="fill:#b70069;fill-opacity:1;stroke:#b70069;stroke-width:7;stroke-linecap:round;stroke-linejoin:round;stroke-miterlimit:4;stroke-opacity:1;stroke-dasharray:none"
         sodipodi:type="arc"
         transform="translate(27.256542,-44.934219)" />
      <path
         d="m 135.41095,263.49619 c 0,3.07537 -2.49309,5.56846 -5.56847,5.56846 -3.07538,0 -5.56846,-2.49309 -5.56846,-5.56846 0,-3.07538 2.49308,-5.56847 5.56846,-5.56847 3.07538,0 5.56847,2.49309 5.56847,5.56847 z"
         sodipodi:ry="5.5684657"
         sodipodi:rx="5.5684657"
         sodipodi:cy="263.49619"
         sodipodi:cx="129.84248"
         id="path4415-5-4-2"
         style="fill:#b70069;fill-opacity:1;stroke:#b70069;stroke-width:7;stroke-linecap:round;stroke-linejoin:round;stroke-miterlimit:4;stroke-opacity:1;stroke-dasharray:none"
         sodipodi:type="arc"
         transform="matrix(-1,0,0,1,247.00507,-45.341184)" />
      <path
         sodipodi:nodetypes="csszzzzc"
         inkscape:connector-curvature="0"
         id="path4528"
         d="m 210.82779,252.23731 c 0.8697,1.69128 1.36059,3.6093 1.36059,5.64198 0,6.82321 -4.4462,12.989 -10.31881,13.33726 -3.82321,0.22673 -10.13756,-0.0667 -11.93333,-6.1772 -1.79577,-6.11053 3.22248,-11.47768 6.63408,-11.47768 3.41161,0 8.21291,4.40817 8.21291,11.23138 0,6.82321 -9.54698,12.46772 -14.39021,11.79293 -4.84323,-0.67479 -5.49657,-0.17181 -11.51216,-5.03411"
         style="fill:none;stroke:#b70069;stroke-width:8;stroke-linecap:round;stroke-linejoin:round;stroke-miterlimit:4;stroke-opacity:1;stroke-dasharray:none" />
    </g>
  </g>
</svg>
