<?xml version="1.0" encoding="UTF-8" standalone="no"?>
<!-- Created with Inkscape (http://www.inkscape.org/) -->

<svg
   xmlns:dc="http://purl.org/dc/elements/1.1/"
   xmlns:cc="http://creativecommons.org/ns#"
   xmlns:rdf="http://www.w3.org/1999/02/22-rdf-syntax-ns#"
   xmlns:svg="http://www.w3.org/2000/svg"
   xmlns="http://www.w3.org/2000/svg"
   xmlns:sodipodi="http://sodipodi.sourceforge.net/DTD/sodipodi-0.dtd"
   xmlns:inkscape="http://www.inkscape.org/namespaces/inkscape"
   width="261.2384"
   height="287.70413"
   id="svg2"
   version="1.1"
   inkscape:version="0.48.5 r10040"
   sodipodi:docname="prawn_icon.svg">
  <defs
     id="defs4" />
  <sodipodi:namedview
     id="base"
     pagecolor="#ffffff"
     bordercolor="#666666"
     borderopacity="1.0"
     inkscape:pageopacity="0.0"
     inkscape:pageshadow="2"
     inkscape:zoom="1.979899"
     inkscape:cx="-8.154725"
     inkscape:cy="215.06274"
     inkscape:document-units="px"
     inkscape:current-layer="layer1"
     showgrid="false"
     inkscape:window-width="1136"
     inkscape:window-height="856"
     inkscape:window-x="79"
     inkscape:window-y="27"
     inkscape:window-maximized="0"
     fit-margin-top="20"
     fit-margin-left="20"
     fit-margin-right="20"
     fit-margin-bottom="20" />
  <metadata
     id="metadata7">
    <rdf:RDF>
      <cc:Work
         rdf:about="">
        <dc:format>image/svg+xml</dc:format>
        <dc:type
           rdf:resource="http://purl.org/dc/dcmitype/StillImage" />
        <dc:title />
      </cc:Work>
    </rdf:RDF>
  </metadata>
  <g
     inkscape:label="Layer 1"
     inkscape:groupmode="layer"
     id="layer1"
     transform="translate(-171.94873,-283.51001)">
    <path
       style="fill:#fff1dc;stroke:#d76d00;stroke-width:15;stroke-linecap:butt;stroke-linejoin:round;stroke-miterlimit:4;stroke-opacity:1;stroke-dasharray:none;fill-opacity:1"
       d="m 199.44873,344.57137 c 23.42341,-6.35936 86.21019,-14.7844 118.13746,-33.56136 1.7082,0.65013 0.63666,3.83816 3.36571,4.32867 38.67528,7.28859 71.29788,36.92313 81.40253,76.27297 15.29581,59.56543 -23.74417,120.5041 -82.61316,135.33138 -19.35019,5.41548 -38.66029,16.16592 -59.12191,16.55481 -6.14456,0.11678 -15.75645,1.45525 -17.93022,-4.29315 -3.13155,-8.28119 16.21379,-12.92522 15.27485,-21.7288 -1.20261,-11.27572 -24.86411,-11.73921 -24.99385,-23.07814 -0.0402,-3.51218 4.24423,-6.21215 7.57615,-7.32361 18.14047,-6.05128 37.80796,6.65431 56.92533,7.12448 5.28549,0.13 11.53967,0.98723 15.81631,-1.19369 30.47004,-15.53853 53.88033,-46.03677 38.8364,-78.58416 -13.5636,-29.34475 -50.29006,-44.6628 -76.98898,-29.73576 -7.03623,3.63488 -83.22353,-19.02965 -73.3464,-24.51764 l 12.30553,-6.83728 z"
       inkscape:connector-curvature="0"
       sodipodi:nodetypes="cccscaaaaaasscscc"
       id="path6128" />
    <path
       style="fill:#3c3ba0;fill-opacity:1;stroke:#d76d00;stroke-width:15;stroke-linecap:butt;stroke-linejoin:round;stroke-miterlimit:4;stroke-opacity:1;stroke-dasharray:none"
       d="m 348.30983,515.06192 c -15.0938,-1.47859 -23.50679,-9.00554 -33.32979,-19.52095 m 14.85347,-11.26843 c 13.54238,5.11055 25.3834,12.04696 42.84903,10.83885"
       id="path3791"
       inkscape:connector-curvature="0"
       sodipodi:nodetypes="cccc" />
    <path
       style="fill:none;stroke:#d76d00;stroke-width:15;stroke-linecap:butt;stroke-linejoin:round;stroke-miterlimit:4;stroke-opacity:1;stroke-dasharray:none"
       d="m 401.4159,445.70029 c -10.42342,2.03403 -25.46402,6.33719 -46.19321,-0.86526 m 3.58158,-17.85481 c 18.57687,-1.85705 31.62183,-2.34869 45.27241,-11.57788"
       id="path3795"
       inkscape:connector-curvature="0"
       sodipodi:nodetypes="cccc" />
    <path
       sodipodi:nodetypes="cccc"
       inkscape:connector-curvature="0"
       id="path3815"
       d="m 374.33311,345.72314 c -7.03979,16.71727 -18.2858,37.27905 -36.09617,46.58102 m -11.03859,-10.67624 c 15.39017,-17.04938 21.2839,-36.52218 26.61343,-53.73917"
       style="fill:none;stroke:#d76d00;stroke-width:15;stroke-linecap:butt;stroke-linejoin:round;stroke-miterlimit:4;stroke-opacity:1;stroke-dasharray:none" />
    <path
       style="fill:none;stroke:#d76d00;stroke-width:15;stroke-linecap:butt;stroke-linejoin:round;stroke-miterlimit:4;stroke-opacity:1;stroke-dasharray:none"
       d="m 320.35714,313.79075 c 8.92073,17.06418 -22.84461,65.54646 -57.52973,69.93873"
       id="path3874"
       inkscape:connector-curvature="0"
       sodipodi:nodetypes="cc" />
    <path
       sodipodi:type="arc"
       style="fill:#d76d00;fill-opacity:1;stroke:none"
       id="path3876"
       sodipodi:cx="244.64285"
       sodipodi:cy="353.79074"
       sodipodi:rx="3.2142856"
       sodipodi:ry="3.2142856"
       d="m 247.85714,353.79074 a 3.2142856,3.2142856 0 1 1 -6.42857,0 3.2142856,3.2142856 0 1 1 6.42857,0 z"
       transform="matrix(3.0665545,0,0,3.0665545,-498.78208,-731.12785)" />
  </g>
</svg>
