<?xml version="1.0" encoding="UTF-8" standalone="no"?>
<!-- Created with Inkscape (http://www.inkscape.org/) -->

<svg
   xmlns:dc="http://purl.org/dc/elements/1.1/"
   xmlns:cc="http://creativecommons.org/ns#"
   xmlns:rdf="http://www.w3.org/1999/02/22-rdf-syntax-ns#"
   xmlns:svg="http://www.w3.org/2000/svg"
   xmlns="http://www.w3.org/2000/svg"
   xmlns:sodipodi="http://sodipodi.sourceforge.net/DTD/sodipodi-0.dtd"
   xmlns:inkscape="http://www.inkscape.org/namespaces/inkscape"
   width="361.41733"
   height="361.41733"
   id="svg2985"
   version="1.1"
   inkscape:version="0.48.2 r9819"
   sodipodi:docname="ratios-icon.svg"
   inkscape:export-filename="/Users/tass/Projects/Dumplings/Dumplings/src/main/res/drawable-xhdpi/ratings_and_ratios.png"
   inkscape:export-xdpi="23.905882"
   inkscape:export-ydpi="23.905882">
  <defs
     id="defs3" />
  <sodipodi:namedview
     inkscape:document-units="mm"
     id="base"
     pagecolor="#ffffff"
     bordercolor="#666666"
     borderopacity="1.0"
     inkscape:pageopacity="0.0"
     inkscape:pageshadow="2"
     inkscape:zoom="0.49497475"
     inkscape:cx="-3.5829585"
     inkscape:cy="22.565719"
     inkscape:current-layer="layer1"
     showgrid="false"
     inkscape:window-width="1440"
     inkscape:window-height="789"
     inkscape:window-x="0"
     inkscape:window-y="0"
     inkscape:window-maximized="1"
     units="mm"
     fit-margin-top="4"
     fit-margin-left="2"
     fit-margin-right="2"
     fit-margin-bottom="2" />
  <metadata
     id="metadata4">
    <rdf:RDF>
      <cc:Work
         rdf:about="">
        <dc:format>image/svg+xml</dc:format>
        <dc:type
           rdf:resource="http://purl.org/dc/dcmitype/StillImage" />
        <dc:title />
      </cc:Work>
    </rdf:RDF>
  </metadata>
  <g
     inkscape:label="Layer 1"
     inkscape:groupmode="layer"
     id="layer1"
     transform="translate(-143.99839,-288.56287)">
    <rect
       style="fill:#009b03;fill-opacity:1;stroke:none"
       id="rect3075"
       width="135.71428"
       height="129.72055"
       x="346.28571"
       y="315.78448"
       rx="16.795275"
       ry="13.788771" />
    <rect
       ry="16.795275"
       rx="16.795275"
       y="398.48697"
       x="174.28571"
       height="47.018055"
       width="135.71428"
       id="rect3099"
       style="fill:#009b03;fill-opacity:1;stroke:none" />
    <g
       id="layer1-0"
       inkscape:label="Layer 1"
       transform="translate(73.976842,192.83616)">
      <path
         sodipodi:nodetypes="saacaasccaaacaaczcaacaaaccsaacaaszs"
         inkscape:connector-curvature="0"
         id="path2991"
         d="m 148.27823,435.38976 c -4.97904,-2.79005 -7.10301,-7.93564 -7.73847,-12.91345 -0.64612,-5.06132 4.46636,-9.58549 4.31738,-14.68571 C 144.42878,393.12622 130,366.36218 130,366.36218 c 0,0 -7.68982,3.40305 -11.79841,3.6327 -5.09169,0.2846 -10.919,0.17021 -15.03217,-2.84444 -3.4585,-2.53482 -9.407545,-8.03879 -6.086299,-11.33294 6.170539,-6.1202 17.708539,-7.40175 27.827589,-7.66961 -0.59524,-2.05357 -0.83333,-3.66071 -0.71428,-6.42857 0,0 -9.40385,-4.97202 -12.76786,-8.92857 -4.62166,-5.43574 -9.08855,-12.15352 -9.28571,-19.28571 -0.18877,-6.8289 3.30868,-13.83142 7.85714,-18.92858 4.89636,-5.48701 19.28571,-10.71427 19.28571,-10.71427 0,0 -8.67719,9.65074 -10.07171,15.71399 -1.31663,5.72462 -1.33735,12.71658 2.072,17.5 4.12868,5.79266 19.214,9.286 19.214,9.286 10.65301,-4.80173 13.31846,-6.07092 26.80748,-6.07083 13.48902,9e-5 16.15451,1.2691 26.80752,6.07083 0,0 15.08529,-3.49255 19.214,-9.285 3.40945,-4.78335 3.38859,-11.77537 2.072,-17.5 -1.39451,-6.06344 -10.07175,-15.71465 -10.07175,-15.71465 0,0 14.38935,5.22726 19.28571,10.71427 4.54846,5.09716 8.04591,12.09968 7.85714,18.92858 -0.19716,7.13219 -4.66405,13.84997 -9.28571,19.28571 -3.36401,3.95655 -12.76786,8.92857 -12.76786,8.92857 0.11905,2.76786 -0.11904,4.375 -0.71428,6.42857 10.11905,0.26786 21.65705,1.54941 27.82759,7.66961 3.32125,3.29415 -2.6278,8.79812 -6.0863,11.33294 -4.11317,3.01465 -9.94048,3.12904 -15.03217,2.84444 -4.10859,-0.22965 -11.79841,-3.6327 -11.79841,-3.6327 0,0 -14.42872,26.76427 -14.85714,41.42875 -0.14901,5.10044 4.96359,9.62484 4.31741,14.68637 -0.63548,4.9778 -2.75943,10.1234 -7.73847,12.91345 -5.02053,2.81331 -11.06681,3.66658 -18.77674,3.66652 -7.70993,-6e-5 -14.26126,-0.85454 -19.28179,-3.66785 z"
         style="fill:#8f5902;fill-opacity:1;stroke:#8f5902;stroke-width:13.99960613;stroke-linecap:round;stroke-linejoin:round;stroke-miterlimit:4;stroke-opacity:1;stroke-dasharray:none" />
    </g>
    <g
       id="layer1-1"
       inkscape:label="Layer 1"
       transform="translate(264.08128,326.58497)">
      <path
         inkscape:connector-curvature="0"
         id="path3896"
         d="m 200.9531,238.07646 c 0,29.99472 -23.11629,54.31024 -51.63167,54.31024 -28.51539,0 -51.631674,-24.31552 -51.631674,-54.31024 0,-29.99472 23.116284,-54.31024 51.631674,-54.31024 28.51538,0 51.63167,24.31552 51.63167,54.31024 z"
         style="fill:#b70069;fill-opacity:1;stroke:#b70069;stroke-width:10;stroke-linecap:round;stroke-linejoin:round;stroke-miterlimit:4;stroke-opacity:1;stroke-dasharray:none" />
      <path
         sodipodi:nodetypes="ccc"
         inkscape:connector-curvature="0"
         id="path4407"
         d="m 175.17246,191.1892 c 4.44743,-15.41489 30.88941,-7.3279 36.12347,-13.76706 -0.0369,16.34033 3.00026,26.8732 -17.96611,32.23822"
         style="fill:#b70069;fill-opacity:1;stroke:#b70069;stroke-width:10;stroke-linecap:butt;stroke-linejoin:miter;stroke-miterlimit:4;stroke-opacity:1;stroke-dasharray:none" />
      <path
         transform="matrix(1.9596586,0,0,1.7073579,-131.55113,-182.38701)"
         d="m 158.92857,259.86218 c 0,6.90356 -7.03553,12.5 -15.71429,12.5 -8.67876,0 -15.71429,-5.59644 -15.71429,-12.5 0,-6.90356 7.03553,-12.5 15.71429,-12.5 8.67876,0 15.71429,5.59644 15.71429,12.5 z"
         sodipodi:ry="12.5"
         sodipodi:rx="15.714286"
         sodipodi:cy="259.86218"
         sodipodi:cx="143.21428"
         id="path4413"
         style="fill:#ffffff;fill-opacity:1;stroke:#b70069;stroke-width:7.42036057;stroke-linecap:round;stroke-linejoin:round;stroke-miterlimit:4;stroke-opacity:1;stroke-dasharray:none"
         sodipodi:type="arc" />
      <path
         transform="matrix(0.70787158,0,0,0.70787158,49.077574,75.118301)"
         d="m 135.41095,263.49619 c 0,3.07537 -2.49309,5.56846 -5.56847,5.56846 -3.07538,0 -5.56846,-2.49309 -5.56846,-5.56846 0,-3.07538 2.49308,-5.56847 5.56846,-5.56847 3.07538,0 5.56847,2.49309 5.56847,5.56847 z"
         sodipodi:ry="5.5684657"
         sodipodi:rx="5.5684657"
         sodipodi:cy="263.49619"
         sodipodi:cx="129.84248"
         id="path4415"
         style="fill:#b70069;fill-opacity:1;stroke:#b70069;stroke-width:4.23805666;stroke-linecap:round;stroke-linejoin:round;stroke-miterlimit:4;stroke-opacity:1;stroke-dasharray:none"
         sodipodi:type="arc" />
      <path
         d="m 135.41095,263.49619 c 0,3.07537 -2.49309,5.56846 -5.56847,5.56846 -3.07538,0 -5.56846,-2.49309 -5.56846,-5.56846 0,-3.07538 2.49308,-5.56847 5.56846,-5.56847 3.07538,0 5.56847,2.49309 5.56847,5.56847 z"
         sodipodi:ry="5.5684657"
         sodipodi:rx="5.5684657"
         sodipodi:cy="263.49619"
         sodipodi:cx="129.84248"
         id="path4415-5"
         style="fill:#b70069;fill-opacity:1;stroke:#b70069;stroke-width:4.23805666;stroke-linecap:round;stroke-linejoin:round;stroke-miterlimit:4;stroke-opacity:1;stroke-dasharray:none"
         sodipodi:type="arc"
         transform="matrix(0.70787158,0,0,0.70787158,65.196154,75.118518)" />
      <path
         sodipodi:nodetypes="ccc"
         inkscape:connector-curvature="0"
         id="path4407-9"
         d="m 123.08915,190.78224 c -4.44743,-15.41489 -30.889406,-7.3279 -36.123466,-13.76706 0.0369,16.34033 -3.00026,26.8732 17.966106,32.23822"
         style="fill:#b70069;fill-opacity:1;stroke:#b70069;stroke-width:10;stroke-linecap:butt;stroke-linejoin:miter;stroke-miterlimit:4;stroke-opacity:1;stroke-dasharray:none" />
    </g>
  </g>
</svg>
