<?xml version="1.0" encoding="UTF-8" standalone="no"?>
<!-- Created with Inkscape (http://www.inkscape.org/) -->

<svg
   xmlns:dc="http://purl.org/dc/elements/1.1/"
   xmlns:cc="http://creativecommons.org/ns#"
   xmlns:rdf="http://www.w3.org/1999/02/22-rdf-syntax-ns#"
   xmlns:svg="http://www.w3.org/2000/svg"
   xmlns="http://www.w3.org/2000/svg"
   xmlns:xlink="http://www.w3.org/1999/xlink"
   xmlns:sodipodi="http://sodipodi.sourceforge.net/DTD/sodipodi-0.dtd"
   xmlns:inkscape="http://www.inkscape.org/namespaces/inkscape"
   width="133.72726"
   height="174.92407"
   id="svg6643"
   version="1.1"
   inkscape:version="0.48.4 r9939"
   sodipodi:docname="vegetable_icon (copy).svg"
   inkscape:export-filename="/home/tass/Projects/Dumplings/workspace/vegetable_icon (copy).png"
   inkscape:export-xdpi="90"
   inkscape:export-ydpi="90">
  <defs
     id="defs6645">
    <linearGradient
       id="linearGradient3764">
      <stop
         style="stop-color:#bcffb2;stop-opacity:1;"
         offset="0"
         id="stop3766" />
      <stop
         style="stop-color:#f8fff9;stop-opacity:1;"
         offset="1"
         id="stop3768" />
    </linearGradient>
    <linearGradient
       inkscape:collect="always"
       xlink:href="#linearGradient3764"
       id="linearGradient3792"
       x1="-172.17738"
       y1="1.6479027"
       x2="-172.17738"
       y2="104.55051"
       gradientUnits="userSpaceOnUse" />
  </defs>
  <sodipodi:namedview
     id="base"
     pagecolor="#ffffff"
     bordercolor="#666666"
     borderopacity="1.0"
     inkscape:pageopacity="0.0"
     inkscape:pageshadow="2"
     inkscape:zoom="0.7"
     inkscape:cx="-4.3109476"
     inkscape:cy="106.22093"
     inkscape:document-units="px"
     inkscape:current-layer="layer1"
     showgrid="false"
     inkscape:window-width="1329"
     inkscape:window-height="1049"
     inkscape:window-x="480"
     inkscape:window-y="31"
     inkscape:window-maximized="0"
     fit-margin-top="20"
     fit-margin-left="20"
     fit-margin-right="20"
     fit-margin-bottom="20" />
  <metadata
     id="metadata6648">
    <rdf:RDF>
      <cc:Work
         rdf:about="">
        <dc:format>image/svg+xml</dc:format>
        <dc:type
           rdf:resource="http://purl.org/dc/dcmitype/StillImage" />
        <dc:title />
      </cc:Work>
    </rdf:RDF>
  </metadata>
  <g
     inkscape:label="Layer 1"
     inkscape:groupmode="layer"
     id="layer1"
     transform="translate(-17.753622,-128.63455)">
    <path
       style="fill:url(#linearGradient3792);fill-opacity:1;stroke:#0a5f13;stroke-width:8;stroke-linecap:round;stroke-linejoin:round;stroke-miterlimit:4;stroke-opacity:1;stroke-dasharray:none"
       d="m -122.33412,74.448983 c 1.67251,8.632622 -16.86344,41.529997 -7.70921,59.199067 3.53649,6.82596 12.71435,10.60229 20.40047,10.7576 7.81154,0.15784 17.340689,-3.26958 21.158089,-10.08666 9.731898,-17.37913 -7.783479,-54.392782 -6.262691,-59.426207 4.090039,-13.537031 11.093551,-8.89681 19.602607,-18.686546 8.914439,-10.256133 23.97959,-30.953632 9.671267,-43.545749 -15.065937,1.550019 -28.545015,24.918139 -28.545015,24.918139 0,0 4.336822,-27.9310589 -13.863417,-34.3676992 -22.20903,8.9692142 -13.18356,34.0684272 -13.18356,34.0684272 0,0 -4.91387,-21.693118 -25.06773,-25.441794 -14.34549,12.666302 -3.28021,31.294399 2.98774,41.212588 8.1228,12.853263 19.45124,14.378142 20.81145,21.398834 z"
       id="path2990"
       inkscape:connector-curvature="0"
       transform="translate(189.22288,135.15171)"
       sodipodi:nodetypes="saaasscccccss" />
    <path
       style="fill:none;stroke:#0a5f13;stroke-width:4;stroke-linecap:round;stroke-linejoin:miter;stroke-miterlimit:4;stroke-opacity:1;stroke-dasharray:none"
       d="m -122.73353,138.64741 c 10.26902,2.06857 15.14635,-3.93701 19.3207,-9.83631 10.15379,-14.34957 6.926863,-52.279105 6.926863,-52.279105"
       id="path2992"
       inkscape:connector-curvature="0"
       transform="translate(189.22288,135.15171)"
       sodipodi:nodetypes="cac" />
    <path
       style="fill:none;stroke:#0a5f13;stroke-width:4;stroke-linecap:round;stroke-linejoin:miter;stroke-miterlimit:4;stroke-opacity:1;stroke-dasharray:none"
       d="m -107.44974,133.10764 c -1.76777,0 -6.35859,-6.13848 -7.95645,-10.12134 -5.86268,-14.61343 -4.56738,-47.015402 -4.56738,-47.015402"
       id="path2994"
       inkscape:connector-curvature="0"
       transform="translate(189.22288,135.15171)"
       sodipodi:nodetypes="cac" />
    <path
       style="fill:#0a5f13;fill-opacity:1;stroke:#0a5f13;stroke-width:4;stroke-linecap:round;stroke-linejoin:miter;stroke-miterlimit:4;stroke-opacity:1;stroke-dasharray:none"
       d="M 63.134534,26.17911 C 62.881996,50.422771 62.250651,64.438638 62.250651,64.438638"
       id="path2999"
       inkscape:connector-curvature="0"
       transform="translate(17.753622,128.63455)"
       sodipodi:nodetypes="cc" />
    <path
       style="fill:#0a5f13;fill-opacity:1;stroke:#0a5f13;stroke-width:4;stroke-linecap:round;stroke-linejoin:miter;stroke-miterlimit:4;stroke-opacity:1;stroke-dasharray:none"
       d="M 51.012704,64.817444 C 37.628182,50.170233 29.7995,32.745101 29.7995,32.745101"
       id="path3001"
       inkscape:connector-curvature="0"
       transform="translate(17.753622,128.63455)"
       sodipodi:nodetypes="cc" />
    <path
       style="fill:#0a5f13;fill-opacity:1;stroke:#0a5f13;stroke-width:4;stroke-linecap:round;stroke-linejoin:miter;stroke-miterlimit:4;stroke-opacity:1;stroke-dasharray:none"
       d="M 72.983522,65.196253 C 85.862967,56.609956 100.25764,34.639137 100.25764,34.639137"
       id="path3003"
       inkscape:connector-curvature="0"
       transform="translate(17.753622,128.63455)"
       sodipodi:nodetypes="cc" />
  </g>
</svg>
